<?xml version="1.0" encoding="UTF-8" standalone="no"?>
<!-- Created with Inkscape (http://www.inkscape.org/) -->

<svg
   width="210mm"
   height="297mm"
   viewBox="0 0 210 297"
   version="1.1"
   id="svg7801"
   inkscape:version="1.2.1 (0f2f062aeb, 2022-09-21, custom)"
   sodipodi:docname="design.svg"
   xmlns:inkscape="http://www.inkscape.org/namespaces/inkscape"
   xmlns:sodipodi="http://sodipodi.sourceforge.net/DTD/sodipodi-0.dtd"
   xmlns="http://www.w3.org/2000/svg"
   xmlns:svg="http://www.w3.org/2000/svg">
  <sodipodi:namedview
     id="namedview7803"
     pagecolor="#505050"
     bordercolor="#eeeeee"
     borderopacity="1"
     inkscape:showpageshadow="0"
     inkscape:pageopacity="0"
     inkscape:pagecheckerboard="0"
     inkscape:deskcolor="#505050"
     inkscape:document-units="mm"
     showgrid="false"
     inkscape:zoom="0.76599267"
     inkscape:cx="573.76528"
     inkscape:cy="298.30573"
     inkscape:window-width="1600"
     inkscape:window-height="836"
     inkscape:window-x="0"
     inkscape:window-y="0"
     inkscape:window-maximized="1"
     inkscape:current-layer="g2164" />
  <defs
     id="defs7798">
    <rect
       x="145.86873"
       y="431.41018"
       width="435.11758"
       height="97.88157"
       id="rect8482" />
    <inkscape:path-effect
       effect="perspective-envelope"
       up_left_point="3744.4541,2097.5654"
       up_right_point="3877.3561,2037.6638"
       down_left_point="3713.3617,2180.3642"
       down_right_point="3864.3698,2191.1717"
       id="path-effect8426"
       is_visible="true"
       lpeversion="1"
       deform_type="perspective"
       horizontal_mirror="false"
       vertical_mirror="false"
       overflow_perspective="false" />
    <inkscape:path-effect
       effect="bspline"
       id="path-effect2160"
       is_visible="true"
       weight="33.333333"
       steps="2"
       helper_size="0"
       apply_no_weight="true"
       apply_with_weight="true"
       only_selected="false"
       lpeversion="0" />
    <inkscape:path-effect
       effect="bspline"
       id="path-effect1460-0"
       is_visible="true"
       weight="33.333333"
       steps="2"
       helper_size="0"
       apply_no_weight="true"
       apply_with_weight="true"
       only_selected="false"
       lpeversion="0" />
    <inkscape:path-effect
       only_selected="false"
       apply_with_weight="true"
       apply_no_weight="true"
       helper_size="0"
       steps="2"
       weight="33.333333"
       is_visible="true"
       id="path-effect1468-6"
       effect="bspline"
       lpeversion="0" />
    <inkscape:path-effect
       effect="bspline"
       id="path-effect1472-1"
       is_visible="true"
       weight="33.333333"
       steps="2"
       helper_size="0"
       apply_no_weight="true"
       apply_with_weight="true"
       only_selected="false"
       lpeversion="0" />
  </defs>
  <g
     inkscape:label="Layer 1"
     inkscape:groupmode="layer"
     id="layer1">
    <g
       id="g2164"
       transform="matrix(0.62281462,0,0,0.62281462,-2256.4651,-1263.6402)"
       style="fill:#000000;fill-opacity:1">
      <path
         id="rect14244"
         style="fill:#ffa500;stroke-width:9.47107"
         d="m 3838.6251,2038.2205 h 211.0002 v 211.0002 h -211.0002 z" />
      <path
         id="path10752"
         style="font-weight:bold;font-size:48px;font-family:Dhurjati;-inkscape-font-specification:'Dhurjati Bold';text-align:center;text-anchor:middle;white-space:pre;fill:#000000;fill-opacity:0.429492;stroke-width:3.04379"
         d="m 3969.2968,2204.268 v 3.0973 h 1.4263 c 0.1134,0 0.2221,-0.011 0.3256,-0.037 0.1035,-0.024 0.1942,-0.059 0.2731,-0.1036 0.084,-0.049 0.1482,-0.1087 0.1925,-0.1776 0.049,-0.069 0.073,-0.1478 0.073,-0.2365 v -1.9885 c 0,-0.089 -0.024,-0.1676 -0.073,-0.2366 -0.044,-0.069 -0.1087,-0.1257 -0.1925,-0.1699 -0.079,-0.049 -0.1696,-0.086 -0.2731,-0.1107 -0.1035,-0.024 -0.2122,-0.037 -0.3256,-0.037 z m 2.7272,0 v 3.0968 h 2.1215 v -0.4136 h -1.4119 v -1.0278 h 1.1088 v -0.4136 h -1.1088 v -0.8282 h 1.4119 v -0.4136 z m 2.4616,0 1.0867,3.0968 h 0.7167 l 1.0868,-3.0968 h -0.7097 l -0.7392,2.0845 -0.7317,-2.0845 z m 3.2083,0 v 3.0968 h 2.121 v -0.4136 h -1.4119 v -1.0278 h 1.1088 v -0.4136 h -1.1088 v -0.8282 h 1.4119 v -0.4136 z m 2.6461,0 v 3.0968 h 2.1211 v -0.4136 h -1.4114 v -2.6832 z m 3.4959,0 c -0.1133,0 -0.2242,0.011 -0.3326,0.037 -0.1035,0.024 -0.1942,0.061 -0.273,0.1106 -0.079,0.044 -0.1433,0.101 -0.1926,0.17 -0.049,0.069 -0.074,0.1478 -0.074,0.2365 v 1.9885 c 0,0.089 0.025,0.1676 0.074,0.2366 0.049,0.069 0.1137,0.1283 0.1926,0.1776 0.079,0.044 0.1695,0.079 0.273,0.1035 0.1084,0.024 0.2193,0.036 0.3326,0.036 h 0.6062 c 0.1133,0 0.222,-0.011 0.3255,-0.036 0.1084,-0.025 0.2018,-0.059 0.2806,-0.1035 0.079,-0.049 0.1433,-0.1087 0.1926,-0.1776 0.049,-0.069 0.073,-0.1479 0.073,-0.2366 v -1.9885 c 0,-0.088 -0.024,-0.1676 -0.073,-0.2365 -0.049,-0.069 -0.1137,-0.1258 -0.1926,-0.17 -0.079,-0.049 -0.1722,-0.086 -0.2806,-0.1106 -0.1035,-0.025 -0.2122,-0.037 -0.3255,-0.037 z m 2.0475,0 v 3.0968 l 0.7097,5e-4 v -1.3678 h 0.7172 c 0.1133,0 0.2216,-0.011 0.3251,-0.037 0.1034,-0.025 0.1947,-0.059 0.2735,-0.1036 0.084,-0.049 0.1477,-0.108 0.1921,-0.177 0.049,-0.069 0.074,-0.1479 0.074,-0.2365 v -0.6212 c 0,-0.089 -0.025,-0.1676 -0.074,-0.2366 -0.044,-0.069 -0.1083,-0.1257 -0.1921,-0.1699 -0.079,-0.049 -0.1701,-0.086 -0.2735,-0.1107 -0.1035,-0.024 -0.2118,-0.037 -0.3251,-0.037 z m 2.8237,0 v 3.0968 h 2.1215 v -0.4136 h -1.4118 v -1.0278 h 1.1088 v -0.4136 h -1.1088 v -0.8282 h 1.4118 v -0.4136 z m 2.6462,0 v 3.0968 h 0.7097 v -1.3449 l 0.9982,1.3449 h 0.7462 l -1.0198,-1.3748 c 0.1085,0 0.2141,-0.011 0.3176,-0.036 0.1084,-0.025 0.2022,-0.059 0.2811,-0.1036 0.079,-0.049 0.1402,-0.1087 0.1845,-0.1776 0.049,-0.069 0.074,-0.1478 0.074,-0.2365 v -0.6137 c 0,-0.089 -0.025,-0.1676 -0.074,-0.2365 -0.044,-0.069 -0.1082,-0.1259 -0.192,-0.17 -0.079,-0.049 -0.1701,-0.086 -0.2736,-0.1106 -0.1035,-0.025 -0.2117,-0.037 -0.3251,-0.037 z m 5.8291,-1.3589 v 4.4555 h 1.0211 v -2.2753 l 0.7656,1.5737 h 1.0743 l 0.744,-1.5636 v 2.2652 h 1.0319 v -4.4555 h -1.0419 l -1.2765,2.6479 -1.2657,-2.6479 z m 5.4773,0 v 3.6582 c 0,0.1275 0.035,0.2411 0.1058,0.3403 0.071,0.099 0.1636,0.1845 0.277,0.2555 0.1135,0.064 0.244,0.1135 0.3929,0.149 0.156,0.035 0.3161,0.052 0.4792,0.052 h 0.8714 c 0.1631,0 0.3195,-0.018 0.4684,-0.052 0.156,-0.035 0.2902,-0.085 0.4037,-0.149 0.1134,-0.071 0.2061,-0.1562 0.277,-0.2555 0.071,-0.099 0.1065,-0.2127 0.1065,-0.3403 v -3.6582 h -1.0318 v 3.5625 c 0,0.099 -0.039,0.1733 -0.1173,0.2231 -0.071,0.05 -0.1733,0.075 -0.308,0.075 h -0.4684 c -0.1347,0 -0.2408,-0.025 -0.3188,-0.075 -0.078,-0.05 -0.1173,-0.1238 -0.1173,-0.2231 v -3.5625 z m 4.19,0 v 4.4555 h 1.021 v -2.6797 l 1.5845,2.6797 h 1.0743 v -4.4447 h -1.0318 v 2.7112 l -1.5953,-2.722 z m 4.2641,0 1.6384,2.2227 v 2.2328 h 1.0203 v -2.2328 l 1.6485,-2.2227 h -1.021 l -1.1376,1.5312 -1.1276,-1.5312 z m 6.0831,0 -1.6161,4.4555 h 1.021 l 0.3612,-1.0528 h 1.9464 l 0.3721,1.0528 h 1.021 l -1.6269,-4.4555 z m -47.1905,1.7725 h 0.5692 c 0.094,0 0.1674,0.018 0.2215,0.052 0.054,0.035 0.082,0.086 0.082,0.1549 v 1.8555 c 0,0.069 -0.027,0.1206 -0.082,0.1549 -0.054,0.035 -0.1279,0.052 -0.2215,0.052 h -0.5692 z m 13.97,0 h 0.3256 c 0.094,0 0.1648,0.018 0.2141,0.052 0.054,0.035 0.082,0.086 0.082,0.1549 v 1.8555 c 0,0.069 -0.027,0.1206 -0.082,0.1549 -0.049,0.035 -0.1204,0.052 -0.2141,0.052 h -0.3256 c -0.094,0 -0.1673,-0.018 -0.2215,-0.052 -0.054,-0.034 -0.081,-0.086 -0.081,-0.1549 v -1.8555 c 0,-0.069 0.027,-0.1206 0.081,-0.1549 0.054,-0.035 0.1279,-0.052 0.2215,-0.052 z m 2.6167,0 h 0.5691 c 0.094,0 0.1679,0.018 0.2221,0.052 0.054,0.035 0.081,0.086 0.081,0.1549 v 0.4881 c 0,0.069 -0.027,0.1206 -0.081,0.155 -0.054,0.035 -0.1284,0.052 -0.2221,0.052 h -0.5691 z m 5.4699,0 h 0.5691 c 0.094,0 0.1679,0.018 0.2221,0.052 0.054,0.035 0.081,0.086 0.081,0.1549 v 0.4806 c 0,0.069 -0.027,0.1206 -0.081,0.155 -0.054,0.035 -0.1285,0.052 -0.2221,0.052 h -0.5691 z m 25.8786,-0.9429 0.7657,1.9781 h -1.5421 z"
         sodipodi:nodetypes="ccscccssccscccccccccccccccccccccccccccccccccccccccccccsccssssccssccssssccssccccscccssccscccccccccccccccccccccccccssccscccccccccccccccccssccssccssccscsscscccccccccccccccccccccccccccccccccsssscsccsscsscsscsscscsssssscccsssssscccccc" />
      <path
         id="path18146"
         style="fill:#fffcf7;fill-opacity:1;stroke:none;stroke-width:0.211045px;stroke-linecap:butt;stroke-linejoin:miter;stroke-opacity:1"
         d="m 3940.3397,2095.4682 c -0.1609,0.062 -0.3257,0.1363 -0.4918,0.2217 v 0 c -1.347,0.7081 -2.7645,1.5025 -4.0589,2.6643 -1.3874,1.2455 -2.2943,3.2058 -3.6869,4.3373 -0.7593,0.6169 -1.2075,0.6314 -2.1914,1.0593 -0.9698,0.4219 -1.9528,0.2944 -3.565,1.3711 -1.5815,1.0562 -4.0761,3.9953 -5.5837,5.2212 -1.4844,1.2072 -2.4075,1.6109 -3.3586,2.328 -0.9408,0.7094 -1.5261,1.0976 -2.3405,1.9064 -0.809,0.8035 -1.6291,2.1344 -2.4396,2.8954 -0.8047,0.7554 -1.6668,1.0058 -2.5029,1.6809 -0.9035,0.7295 -1.873,1.4761 -2.6731,2.519 -0.9197,1.1989 -1.4374,2.6152 -2.1657,3.9269 -0.8057,1.4508 -1.8119,2.9015 -2.4386,4.3608 -0.4675,1.0886 -0.9097,2.2717 -0.9229,3.143 -0.013,0.8821 0.3853,1.3763 0.4518,1.884 0.067,0.5121 -0.2048,1.0313 -0.5109,1.9109 -0.3078,0.8847 -0.6623,2.1737 -0.8006,3.3078 -0.1401,1.1486 -0.077,2.2112 0.3702,2.8447 0.456,0.6451 1.3134,0.8478 2.3376,0.6701 0.5919,-0.103 1.1914,-0.3561 1.8006,-0.553 0.5258,-0.1698 1.1755,-0.6541 1.5978,-0.5412 0.2298,0.061 0.3583,0.1834 0.4012,0.6405 0.062,0.6542 0.06,1.8529 0.2787,3.0415 0.2226,1.2116 0.6753,2.4225 1.3984,3.2052 0.74,0.8011 1.7621,1.1528 2.7729,1.0647 1.0287,-0.09 1.9913,-0.61 2.9734,-1.2696 0.9917,-0.6662 1.9126,-1.4247 2.6691,-1.8798 0.7626,-0.4588 1.3583,-0.6094 1.9267,-0.3575 0.5758,0.2549 1.1132,0.9054 1.96,0.3111 0.8536,-0.5992 1.9735,-2.4893 3.1855,-4.0293 1.2167,-1.5462 2.5388,-2.7551 4.4951,-4.1816 1.9912,-1.4518 4.673,-3.1525 7.5225,-4.4208 2.9458,-1.3114 6.112,-2.1795 9.0138,-2.7564 3.0179,-0.5998 5.7368,-0.8835 8.8709,-0.1907 3.3024,0.7299 7.1342,2.5504 8.8296,5.4148 1.7771,3.003 1.053,6.983 1.7615,8.8274 0.7255,1.889 2.9329,1.6607 6.1593,0.886 3.3359,-0.8008 7.7618,-2.1826 11.869,-4.5071 4.2333,-2.3961 7.9148,-5.698 10.1841,-9.7922 2.2606,-4.0783 3.0254,-8.77 4.3024,-12.3416 1.2623,-3.5313 3.0576,-6.0612 3.2125,-8.3525 0.1526,-2.2575 -1.6065,-4.1379 -1.9156,-5.7065 -0.304,-1.5446 0,-1.9211 -0.2574,-3.6122 -0.2517,-1.6641 0.7358,-5.3568 -1.4596,-6.1866 -1.9923,-0.7529 -4.534,0.3757 -8.3266,1.7328 0.4515,-2.4392 0.1584,-4.4135 -1.4481,-5.3723 -1.4426,-0.8611 -3.4367,-0.5578 -6.3827,0.05 -0.369,-2.2431 -2.6699,-3.3453 -5.3511,-3.1994 -2.2195,0.1208 -3.772,1.049 -7.5676,3.1314 -0.7918,-1.9673 -2.931,-2.1734 -5.214,-1.977 -2.0281,0.1744 -3.6798,0.5602 -6.8241,2.6132 -0.7012,-1.2258 -0.9079,-1.6045 -2.7563,-1.5231 -1.7919,0.079 -5.8237,2.5386 -7.933,3.0571 -2.0409,0.4986 -3.0316,-0.038 -4.7089,0.3729 -0.1507,0.037 -0.3079,0.086 -0.4693,0.1478 z m 3.709,39.8342 c -1.6768,0.2961 -3.3987,0.7122 -5.0909,1.2651 -3.739,1.2219 -7.3701,3.1127 -10.0746,5.2497 -2.6461,2.0909 -4.4943,4.4877 -5.7749,7.3965 -1.2933,2.9371 -2.0466,6.4853 -1.9632,9.8714 0.086,3.5128 1.0685,6.9097 1.639,8.7831 0.5859,1.9255 0.6939,2.098 1.9134,2.0472 1.241,-0.051 3.6694,-0.336 5.0521,-0.7592 1.4052,-0.4301 1.6727,-0.9725 1.9678,-1.9353 0.2936,-0.9585 0.5959,-2.2974 0.8213,-3.7374 0.2211,-1.4256 0.3617,-2.9442 0.5015,-4.4456 1.1319,0.2011 2.2852,0.4065 3.6194,0.4214 1.3604,0.014 2.91,-0.1667 5.1962,-0.5296 2.3526,-0.3735 5.5259,-0.945 8.6359,-2.3923 3.2022,-1.49 6.2445,-3.8541 8.2451,-6.3783 2.0106,-2.5368 2.8431,-5.1082 2.6114,-7.4526 -0.2266,-2.2931 -1.4659,-4.3168 -3.377,-5.723 -1.841,-1.3545 -4.2908,-2.1244 -7.7217,-2.1959 -1.8568,-0.039 -3.9892,0.1283 -6.2008,0.5148 z" />
      <g
         aria-label="WEB-BRAIN-UI"
         transform="matrix(0.6323415,0,0,0.6323415,3715.0125,1896.5174)"
         id="g18172"
         style="font-size:48px;-inkscape-font-specification:sans-serif;white-space:pre;shape-inside:url(#rect8482);fill:#fffefc;fill-opacity:1;stroke-width:15.7909">
        <path
           d="m 261.6073,473.87891 -3.91724,-13.62759 -3.91724,13.62759 h -5.29655 l -6.62069,-23.11725 h 5.29655 l 3.97242,13.84828 3.91724,-13.84828 h 5.35172 l 3.86207,13.84828 3.97241,-13.84828 h 5.35173 l -6.62069,23.11725 z"
           style="font-weight:bold;font-family:Dhurjati;-inkscape-font-specification:'Dhurjati Bold';text-align:center;text-anchor:middle;fill:#fffefc;fill-opacity:1"
           id="path18148" />
        <path
           d="m 291.29003,473.87891 h -15.83448 v -23.11725 h 15.83448 v 3.08966 H 280.7521 v 6.17931 h 8.27586 v 3.08966 h -8.27586 v 7.66896 h 10.53793 z"
           style="font-weight:bold;font-family:Dhurjati;-inkscape-font-specification:'Dhurjati Bold';text-align:center;text-anchor:middle;fill:#fffefc;fill-opacity:1"
           id="path18150" />
        <path
           d="m 311.8693,469.74098 q 0,0.9931 -0.55173,1.76551 -0.49655,0.77242 -1.43448,1.32414 -0.88276,0.49655 -2.04138,0.77241 -1.15862,0.27587 -2.42758,0.27587 h -10.2069 v -23.11725 h 9.54483 q 1.26896,0 2.42758,0.27587 1.2138,0.27586 2.09655,0.82758 0.88276,0.49655 1.43449,1.26897 0.55172,0.77241 0.55172,1.76552 v 3.86206 q 0,0.33104 -0.11034,0.71725 -0.11035,0.33103 -0.33104,0.66207 -0.16552,0.33103 -0.49655,0.66206 -0.27586,0.27587 -0.71724,0.49656 0.38621,0.22069 0.77241,0.49655 0.44138,0.27586 0.77242,0.66207 0.33103,0.33103 0.49655,0.77241 0.22069,0.38621 0.22069,0.93793 z m -7.50345,1.04827 q 0.9931,0 1.6,-0.38621 0.6069,-0.3862 0.6069,-1.15862 v -4.57931 q 0,-0.71724 -0.55173,-1.10345 -0.55172,-0.3862 -1.54483,-0.44137 h -3.97241 v 7.66896 z m 1.54483,-12.30345 v -3.08965 q 0,-0.77242 -0.6069,-1.15862 -0.55172,-0.38621 -1.6,-0.38621 h -3.2 v 6.17931 h 3.2 q 1.10345,0 1.65517,-0.44138 0.55173,-0.44138 0.55173,-1.10345 z"
           style="font-weight:bold;font-family:Dhurjati;-inkscape-font-specification:'Dhurjati Bold';text-align:center;text-anchor:middle;fill:#fffefc;fill-opacity:1"
           id="path18152" />
        <path
           d="m 316.06235,464.55477 v -2.42759 h 15.06207 v 2.42759 z"
           style="font-weight:bold;font-family:Dhurjati;-inkscape-font-specification:'Dhurjati Bold';text-align:center;text-anchor:middle;fill:#fffefc;fill-opacity:1"
           id="path18154" />
        <path
           d="m 352.03476,469.74098 q 0,0.9931 -0.55172,1.76551 -0.49655,0.77242 -1.43448,1.32414 -0.88276,0.49655 -2.04138,0.77241 -1.15862,0.27587 -2.42759,0.27587 h -10.2069 v -23.11725 h 9.54483 q 1.26897,0 2.42759,0.27587 1.21379,0.27586 2.09655,0.82758 0.88276,0.49655 1.43448,1.26897 0.55173,0.77241 0.55173,1.76552 v 3.86206 q 0,0.33104 -0.11035,0.71725 -0.11034,0.33103 -0.33103,0.66207 -0.16552,0.33103 -0.49655,0.66206 -0.27587,0.27587 -0.71725,0.49656 0.38621,0.22069 0.77242,0.49655 0.44138,0.27586 0.77241,0.66207 0.33104,0.33103 0.49655,0.77241 0.22069,0.38621 0.22069,0.93793 z m -7.50344,1.04827 q 0.9931,0 1.6,-0.38621 0.60689,-0.3862 0.60689,-1.15862 v -4.57931 q 0,-0.71724 -0.55172,-1.10345 -0.55173,-0.3862 -1.54483,-0.44137 h -3.97241 v 7.66896 z m 1.54482,-12.30345 v -3.08965 q 0,-0.77242 -0.60689,-1.15862 -0.55173,-0.38621 -1.6,-0.38621 h -3.2 v 6.17931 h 3.2 q 1.10344,0 1.65517,-0.44138 0.55172,-0.44138 0.55172,-1.10345 z"
           style="font-weight:bold;font-family:Dhurjati;-inkscape-font-specification:'Dhurjati Bold';text-align:center;text-anchor:middle;fill:#fffefc;fill-opacity:1"
           id="path18156" />
        <path
           d="m 366.2692,463.61684 7.61379,10.26207 h -5.57241 l -7.44828,-10.04138 v 10.04138 h -5.29655 v -23.11725 h 10.64828 q 1.26896,0 2.42758,0.27587 1.15862,0.27586 2.04138,0.82758 0.93793,0.49655 1.43448,1.26897 0.55173,0.77241 0.55173,1.76552 v 4.57931 q 0,0.9931 -0.55173,1.76551 -0.49655,0.77242 -1.37931,1.32414 -0.88276,0.49655 -2.09655,0.77242 -1.15862,0.27586 -2.37241,0.27586 z m 1.10345,-8.22069 q 0,-0.77242 -0.6069,-1.15862 -0.6069,-0.38621 -1.65517,-0.38621 h -4.24828 v 6.67586 h 4.24828 q 1.04827,0 1.65517,-0.3862 0.6069,-0.38621 0.6069,-1.15863 z"
           style="font-weight:bold;font-family:Dhurjati;-inkscape-font-specification:'Dhurjati Bold';text-align:center;text-anchor:middle;fill:#fffefc;fill-opacity:1"
           id="path18158" />
        <path
           d="m 390.65537,450.76166 8.44137,23.11725 h -5.29655 l -1.93103,-5.46207 h -10.09655 l -1.87587,5.46207 h -5.29655 l 8.38621,-23.11725 z m -7.83449,14.56552 h 8 l -3.97241,-10.26207 z"
           style="font-weight:bold;font-family:Dhurjati;-inkscape-font-specification:'Dhurjati Bold';text-align:center;text-anchor:middle;fill:#fffefc;fill-opacity:1"
           id="path18160" />
        <path
           d="m 402.13121,473.87891 v -23.11725 h 5.29655 v 23.11725 z"
           style="font-weight:bold;font-family:Dhurjati;-inkscape-font-specification:'Dhurjati Bold';text-align:center;text-anchor:middle;fill:#fffefc;fill-opacity:1"
           id="path18162" />
        <path
           d="m 411.56563,473.87891 v -23.11725 h 5.46207 l 8.27586,14.12414 v -14.06896 h 5.35172 v 23.06207 h -5.57241 l -8.22069,-13.90345 v 13.90345 z"
           style="font-weight:bold;font-family:Dhurjati;-inkscape-font-specification:'Dhurjati Bold';text-align:center;text-anchor:middle;fill:#fffefc;fill-opacity:1"
           id="path18164" />
        <path
           d="m 435.78623,464.55477 v -2.42759 h 15.06207 v 2.42759 z"
           style="font-weight:bold;font-family:Dhurjati;-inkscape-font-specification:'Dhurjati Bold';text-align:center;text-anchor:middle;fill:#fffefc;fill-opacity:1"
           id="path18166" />
        <path
           d="m 455.31726,450.76166 h 5.29655 v 18.48276 q 0,0.77242 0.6069,1.15862 0.6069,0.38621 1.65517,0.38621 h 2.42759 q 1.04827,0 1.6,-0.38621 0.6069,-0.3862 0.6069,-1.15862 v -18.48276 h 5.35172 v 18.97932 q 0,0.9931 -0.55172,1.76551 -0.55173,0.77242 -1.43449,1.32414 -0.88276,0.49655 -2.09655,0.77241 -1.15862,0.27587 -2.42759,0.27587 h -4.52413 q -1.26897,0 -2.48276,-0.27587 -1.15862,-0.27586 -2.04138,-0.77241 -0.88276,-0.55172 -1.43448,-1.32414 -0.55173,-0.77241 -0.55173,-1.76551 z"
           style="font-weight:bold;font-family:Dhurjati;-inkscape-font-specification:'Dhurjati Bold';text-align:center;text-anchor:middle;fill:#fffefc;fill-opacity:1"
           id="path18168" />
        <path
           d="m 477.49651,473.87891 v -23.11725 h 5.29655 v 23.11725 z"
           style="font-weight:bold;font-family:Dhurjati;-inkscape-font-specification:'Dhurjati Bold';text-align:center;text-anchor:middle;fill:#fffefc;fill-opacity:1"
           id="path18170" />
      </g>
    </g>
  </g>
</svg>
