<?xml version="1.0" encoding="UTF-8" standalone="no"?>
<!-- Created with Inkscape (http://www.inkscape.org/) -->

<svg
   width="131.414mm"
   height="39.01366mm"
   viewBox="0 0 131.41399 39.01366"
   version="1.1"
   id="svg10040"
   inkscape:version="1.2.1 (0f2f062aeb, 2022-09-21, custom)"
   sodipodi:docname="logo_toJSON.svg"
   xmlns:inkscape="http://www.inkscape.org/namespaces/inkscape"
   xmlns:sodipodi="http://sodipodi.sourceforge.net/DTD/sodipodi-0.dtd"
   xmlns="http://www.w3.org/2000/svg"
   xmlns:svg="http://www.w3.org/2000/svg">
  <sodipodi:namedview
     id="namedview10042"
     pagecolor="#505050"
     bordercolor="#eeeeee"
     borderopacity="1"
     inkscape:showpageshadow="0"
     inkscape:pageopacity="0"
     inkscape:pagecheckerboard="0"
     inkscape:deskcolor="#505050"
     inkscape:document-units="mm"
     showgrid="false"
     inkscape:zoom="1.5319853"
     inkscape:cx="314.9508"
     inkscape:cy="34.269258"
     inkscape:window-width="1600"
     inkscape:window-height="836"
     inkscape:window-x="0"
     inkscape:window-y="0"
     inkscape:window-maximized="1"
     inkscape:current-layer="layer1" />
  <defs
     id="defs10037">
    <rect
       x="125.79738"
       y="-54.969194"
       width="374.53721"
       height="115.74195"
       id="rect1307" />
    <rect
       x="184.4717"
       y="-62.914919"
       width="230.28357"
       height="85.75157"
       id="rect1301" />
    <rect
       x="246.5843"
       y="317.12909"
       width="436.20691"
       height="65.823837"
       id="rect10698" />
    <inkscape:path-effect
       effect="perspective-envelope"
       up_left_point="-10.031939,72.949191"
       up_right_point="48.539576,46.549833"
       down_left_point="-23.734735,109.43962"
       down_right_point="42.816357,114.20262"
       id="path-effect8426"
       is_visible="true"
       lpeversion="1"
       deform_type="perspective"
       horizontal_mirror="false"
       vertical_mirror="false"
       overflow_perspective="false" />
    <rect
       x="184.4717"
       y="-62.914919"
       width="230.28357"
       height="85.75157"
       id="rect1460" />
    <rect
       x="125.79738"
       y="-54.969194"
       width="374.53721"
       height="115.74195"
       id="rect1462" />
    <rect
       x="125.79738"
       y="-54.969194"
       width="374.53721"
       height="115.74195"
       id="rect1464" />
    <filter
       inkscape:collect="always"
       style="color-interpolation-filters:sRGB"
       id="filter7960"
       x="-0.047385934"
       y="-0.69453823"
       width="1.0947719"
       height="2.3890765">
      <feGaussianBlur
         inkscape:collect="always"
         stdDeviation="1.540221"
         id="feGaussianBlur7962" />
    </filter>
  </defs>
  <g
     inkscape:label="Layer 1"
     inkscape:groupmode="layer"
     id="layer1"
     transform="translate(-44.844531,-40.177298)">
    <path
       id="rect14244"
       style="fill:#ffa500;stroke-width:3.214"
       d="M 44.844531,40.177298 H 176.25853 V 79.190959 H 44.844531 Z" />
    <path
       id="path1442"
       style="fill:#ffa500;stroke-width:3.214"
       d="m 198.93757,40.177298 h 131.414 v 39.013661 h -131.414 z" />
    <g
       aria-label="WEB-BRAIN-UI"
       transform="matrix(0.75736482,0,0,0.75736482,39.039783,-226.98527)"
       id="g1456"
       style="font-size:48px;-inkscape-font-specification:sans-serif;white-space:pre;shape-inside:url(#rect8482);fill:#fffefc;fill-opacity:1;stroke-width:15.7909">
      <text
         xml:space="preserve"
         transform="matrix(0.81218162,0,0,0.81218162,110.2365,405.91805)"
         id="text1446"
         style="font-weight:bold;font-size:48px;font-family:monospace;-inkscape-font-specification:'monospace Bold';text-align:center;white-space:pre;shape-inside:url(#rect1460);display:inline;fill:#30230a;stroke-width:15.7909" />
      <text
         xml:space="preserve"
         transform="matrix(0.90650394,0,0,0.90650394,14.886413,403.53473)"
         id="text1450"
         style="font-style:normal;font-variant:normal;font-weight:bold;font-stretch:normal;font-size:48px;font-family:Dhurjati;-inkscape-font-specification:'Dhurjati Bold';text-align:center;white-space:pre;shape-inside:url(#rect1464);display:inline;fill:#30230a;stroke-width:15.7909"><tspan
           x="246.47249"
           y="-23.069469"
           id="tspan18571">JSON TO</tspan></text>
      <text
         xml:space="preserve"
         transform="matrix(0.30398805,0,0,0.30398805,202.50347,402.36454)"
         id="text1454"
         style="font-style:normal;font-variant:normal;font-weight:bold;font-stretch:normal;font-size:48px;font-family:Dhurjati;-inkscape-font-specification:'Dhurjati Bold';text-align:center;white-space:pre;shape-inside:url(#rect1464);display:inline;fill:#30230a;stroke-width:15.7909"><tspan
           x="162.22438"
           y="-23.069469"
           id="tspan18573">NEURAL NETWORK</tspan></text>
    </g>
    <path
       id="path1458"
       style="fill:#fffcf7;fill-opacity:1;stroke:none;stroke-width:0.0144258px;stroke-linecap:butt;stroke-linejoin:miter;stroke-opacity:1"
       d="m 204.27285,43.222062 c -0.011,0.0042 -0.0223,0.0093 -0.0336,0.01515 v 0 c -0.0921,0.0484 -0.18896,0.102702 -0.27744,0.182121 -0.0948,0.08513 -0.15683,0.219128 -0.25201,0.296471 -0.0519,0.04217 -0.0825,0.04316 -0.1498,0.07241 -0.0663,0.02884 -0.13348,0.02013 -0.24368,0.09372 -0.1081,0.07219 -0.27862,0.27309 -0.38166,0.35689 -0.10147,0.08252 -0.16457,0.11011 -0.22958,0.159128 -0.0643,0.04849 -0.10432,0.07502 -0.15998,0.130311 -0.0553,0.05492 -0.11136,0.145891 -0.16676,0.197909 -0.055,0.05164 -0.11394,0.06875 -0.17108,0.114896 -0.0618,0.04987 -0.12803,0.1009 -0.18272,0.172187 -0.0629,0.08195 -0.0983,0.178759 -0.14804,0.268418 -0.0551,0.09916 -0.12385,0.198331 -0.16668,0.298078 -0.0319,0.07441 -0.0622,0.15528 -0.0631,0.21484 -9.3e-4,0.06029 0.0263,0.09407 0.0309,0.128777 0.005,0.035 -0.014,0.07049 -0.0349,0.13062 -0.0211,0.06047 -0.0453,0.148577 -0.0547,0.226097 -0.01,0.07851 -0.005,0.151146 0.0253,0.194446 0.0312,0.0441 0.0898,0.05795 0.15978,0.04581 0.0405,-0.007 0.0814,-0.02434 0.12308,-0.0378 0.0359,-0.01161 0.0804,-0.04471 0.10922,-0.03699 0.0157,0.0042 0.0245,0.01254 0.0274,0.04378 0.004,0.04472 0.004,0.126652 0.019,0.2079 0.0152,0.08282 0.0462,0.165589 0.0956,0.219091 0.0506,0.05475 0.12044,0.07879 0.18954,0.07277 0.0703,-0.0061 0.13611,-0.0417 0.20324,-0.08678 0.0678,-0.04554 0.13074,-0.09738 0.18245,-0.128489 0.0521,-0.03136 0.0928,-0.04165 0.13169,-0.02444 0.0394,0.01743 0.0761,0.06189 0.13398,0.02127 0.0583,-0.04096 0.13489,-0.170154 0.21774,-0.275419 0.0832,-0.105689 0.17354,-0.188322 0.30726,-0.285828 0.1361,-0.09924 0.31942,-0.215483 0.51419,-0.302182 0.20136,-0.08964 0.41778,-0.148978 0.61613,-0.188407 0.20629,-0.041 0.39213,-0.06039 0.60637,-0.01304 0.22572,0.04989 0.48765,0.174328 0.60353,0.370119 0.12147,0.205269 0.072,0.477317 0.12041,0.603389 0.0496,0.129121 0.20047,0.11352 0.42101,0.06057 0.22802,-0.05474 0.53056,-0.149193 0.8113,-0.30808 0.28936,-0.163783 0.54101,-0.389485 0.69612,-0.669336 0.15452,-0.278772 0.2068,-0.599469 0.29409,-0.843602 0.0863,-0.241374 0.209,-0.414305 0.21959,-0.570925 0.0104,-0.154307 -0.10982,-0.282842 -0.13095,-0.390064 -0.0208,-0.105581 -1e-4,-0.131317 -0.0176,-0.246905 -0.0172,-0.113748 0.0503,-0.366163 -0.0998,-0.42288 -0.13617,-0.05147 -0.30991,0.02568 -0.56915,0.118441 0.0309,-0.166729 0.0108,-0.30168 -0.099,-0.367221 -0.0986,-0.05886 -0.23492,-0.03812 -0.43629,0.0034 -0.0252,-0.153326 -0.18249,-0.228662 -0.36577,-0.218689 -0.15171,0.0083 -0.25783,0.0717 -0.51728,0.214043 -0.0541,-0.134474 -0.20034,-0.148562 -0.35639,-0.135141 -0.13863,0.01192 -0.25153,0.0383 -0.46646,0.178627 -0.0479,-0.08379 -0.0621,-0.109678 -0.1884,-0.104112 -0.12248,0.0054 -0.39807,0.173523 -0.54225,0.208965 -0.13951,0.03408 -0.20723,-0.0026 -0.32188,0.02549 -0.0103,0.0025 -0.021,0.0059 -0.0321,0.0101 z m 0.25352,2.722832 c -0.11461,0.02023 -0.23231,0.04868 -0.34798,0.08647 -0.25558,0.08352 -0.50377,0.212767 -0.68864,0.358836 -0.18087,0.142923 -0.3072,0.306755 -0.39474,0.505582 -0.0884,0.20076 -0.13989,0.443296 -0.13419,0.67475 0.006,0.240115 0.073,0.472306 0.11203,0.600364 0.0401,0.131611 0.0474,0.143404 0.13079,0.139932 0.0848,-0.0035 0.25082,-0.02297 0.34534,-0.0519 0.096,-0.0294 0.11433,-0.06647 0.1345,-0.132286 0.0201,-0.06552 0.0407,-0.157031 0.0561,-0.255463 0.0151,-0.09745 0.0247,-0.201251 0.0343,-0.303873 0.0774,0.01375 0.15621,0.02778 0.24741,0.0288 0.093,9.95e-4 0.19891,-0.01139 0.35518,-0.0362 0.16081,-0.02553 0.37772,-0.06459 0.5903,-0.163525 0.21888,-0.101847 0.42683,-0.263443 0.56358,-0.435983 0.13744,-0.1734 0.19434,-0.349164 0.1785,-0.509415 -0.0155,-0.156742 -0.1002,-0.295073 -0.23083,-0.391192 -0.12584,-0.09258 -0.29329,-0.145211 -0.52781,-0.150096 -0.12692,-0.0027 -0.27268,0.0088 -0.42385,0.03519 z" />
    <g
       id="g17673"
       transform="translate(-1.04e-4,0.81422105)">
      <path
         id="path1862"
         style="font-weight:bold;font-size:48px;font-family:Dhurjati;-inkscape-font-specification:'Dhurjati Bold';text-align:center;text-anchor:middle;white-space:pre;fill:#ffe1a8;fill-opacity:1;stroke-width:10.1339"
         d="m 71.674734,47.679071 v 11.861165 c 0,0.330468 -0.130166,0.578174 -0.389816,0.743406 -0.236052,0.165234 -0.577983,0.247802 -1.026471,0.247802 h -1.416288 v 1.9829 h 2.088687 c 0.542912,0 1.062119,-0.05877 1.557819,-0.176795 0.519303,-0.118024 0.968086,-0.28316 1.345763,-0.495604 0.377678,-0.236047 0.684638,-0.51969 0.920684,-0.850159 0.236051,-0.330467 0.354072,-0.707854 0.354072,-1.13274 V 47.679071 Z m 10.232339,0 c -0.542912,0 -1.073779,0.05877 -1.593082,0.176794 -0.4957,0.118024 -0.932341,0.295303 -1.310018,0.53135 -0.377676,0.212444 -0.684636,0.483463 -0.920682,0.81393 -0.236051,0.330467 -0.354073,0.708338 -0.354073,1.133224 v 2.372233 c 0,0.424887 0.118023,0.802756 0.354073,1.133223 0.236046,0.330467 0.543006,0.613627 0.920682,0.849677 0.377677,0.212442 0.814318,0.377578 1.310018,0.495603 0.519303,0.09441 1.05017,0.141531 1.593082,0.141531 h 2.089169 c 0.448493,0 0.802565,0.08257 1.062217,0.247802 0.259652,0.165234 0.389333,0.413422 0.389333,0.74389 v 3.221908 c 0,0.330468 -0.129681,0.578174 -0.389333,0.743406 -0.259652,0.165234 -0.613724,0.247802 -1.062217,0.247802 h -1.416287 c -0.448489,0 -0.802561,-0.08257 -1.062216,-0.247802 -0.259649,-0.165232 -0.389334,-0.412938 -0.389334,-0.743406 v -1.66409 h -3.399187 v 1.9829 c 0,0.424886 0.118023,0.802273 0.354073,1.13274 0.236046,0.330469 0.543006,0.614112 0.920682,0.850159 0.377677,0.212444 0.814318,0.37758 1.310018,0.495604 0.519303,0.118023 1.05017,0.176795 1.593082,0.176795 h 2.762051 c 0.566511,0 1.097377,-0.05877 1.593082,-0.176795 0.495699,-0.118024 0.932344,-0.28316 1.310016,-0.495604 0.401286,-0.236047 0.708243,-0.51969 0.920684,-0.850159 0.236047,-0.330467 0.354072,-0.707854 0.354072,-1.13274 v -3.859527 c 0,-0.424887 -0.118024,-0.802757 -0.354072,-1.133224 -0.212441,-0.330466 -0.519398,-0.601489 -0.920684,-0.81393 -0.377672,-0.236049 -0.814317,-0.413326 -1.310016,-0.531349 -0.495705,-0.118024 -1.026571,-0.176795 -1.593082,-0.176795 h -2.089169 c -0.448489,0.02361 -0.802561,-0.04731 -1.062216,-0.212539 -0.259649,-0.165234 -0.389334,-0.42508 -0.389334,-0.779152 v -1.699352 c 0,-0.330468 0.129685,-0.578655 0.389334,-0.743889 0.259655,-0.165233 0.613727,-0.247801 1.062216,-0.247801 h 1.416287 c 0.448493,0 0.802565,0.08257 1.062217,0.247801 0.259652,0.165234 0.389333,0.413421 0.389333,0.743889 v 1.13274 h 3.399186 v -1.451549 c 0,-0.424886 -0.118024,-0.802757 -0.354072,-1.133224 -0.212441,-0.330467 -0.519398,-0.601486 -0.920684,-0.81393 -0.377672,-0.236047 -0.814317,-0.413325 -1.310016,-0.53135 -0.495705,-0.118023 -1.026571,-0.176794 -1.593082,-0.176794 z m 13.667271,0 c -0.542913,0 -1.073778,0.05877 -1.593083,0.176794 -0.495699,0.118024 -0.932823,0.295303 -1.310501,0.53135 -0.377675,0.212444 -0.684154,0.483463 -0.9202,0.81393 -0.236049,0.330467 -0.354072,0.708338 -0.354072,1.133224 v 9.524677 c 0,0.424886 0.118024,0.802273 0.354072,1.13274 0.236046,0.330469 0.542525,0.614112 0.9202,0.850159 0.377678,0.212444 0.814802,0.37758 1.310501,0.495604 0.519305,0.118023 1.05017,0.176795 1.593083,0.176795 h 2.903577 c 0.542918,0 1.062127,-0.05877 1.557819,-0.176795 0.51931,-0.118024 0.96761,-0.28316 1.34528,-0.495604 0.37767,-0.236047 0.68463,-0.51969 0.92068,-0.850159 0.23605,-0.330467 0.35408,-0.707854 0.35408,-1.13274 v -9.524677 c 0,-0.424886 -0.11806,-0.802757 -0.35408,-1.133224 -0.23605,-0.330467 -0.54301,-0.601486 -0.92068,-0.81393 -0.37767,-0.236047 -0.82597,-0.413325 -1.34528,-0.53135 -0.495692,-0.118023 -1.014901,-0.176794 -1.557819,-0.176794 z m 9.807746,0 v 14.835273 h 3.39919 v -8.922321 l 5.27581,8.922321 h 3.57599 V 47.714333 h -3.43446 v 9.028591 l -5.31108,-9.063853 z m 22.34179,0 v 1.982417 h 4.03632 v 12.852856 h 3.43493 V 49.661488 h 4.03632 v -1.982417 z m 17.45579,0 c -0.5429,0 -1.07377,0.05877 -1.59308,0.176794 -0.49572,0.118024 -0.93284,0.295303 -1.3105,0.53135 -0.37768,0.212444 -0.68415,0.483463 -0.9202,0.81393 -0.23606,0.330467 -0.35408,0.708338 -0.35408,1.133224 v 9.524677 c 0,0.424886 0.11806,0.802273 0.35408,1.13274 0.23605,0.330469 0.54252,0.614112 0.9202,0.850159 0.37766,0.212444 0.81478,0.37758 1.3105,0.495604 0.51931,0.118023 1.05018,0.176795 1.59308,0.176795 h 2.90358 c 0.54292,0 1.06212,-0.05877 1.55781,-0.176795 0.51932,-0.118024 0.96761,-0.28316 1.34528,-0.495604 0.37769,-0.236047 0.68464,-0.51969 0.9207,-0.850159 0.23604,-0.330467 0.35407,-0.707854 0.35407,-1.13274 v -9.524677 c 0,-0.424886 -0.11806,-0.802757 -0.35407,-1.133224 -0.23606,-0.330467 -0.54301,-0.601486 -0.9207,-0.81393 -0.37767,-0.236047 -0.82596,-0.413325 -1.34528,-0.53135 -0.49569,-0.118023 -1.01489,-0.176794 -1.55781,-0.176794 z m -48.932444,1.982417 h 1.557818 c 0.448491,0 0.790913,0.08257 1.026948,0.247801 0.259659,0.165234 0.389343,0.413421 0.389343,0.743889 v 8.887058 c 0,0.330468 -0.129684,0.578174 -0.389343,0.743406 -0.236035,0.165234 -0.578457,0.247802 -1.026948,0.247802 h -1.557818 c -0.448489,0 -0.802561,-0.08257 -1.062217,-0.247802 -0.259655,-0.165232 -0.389817,-0.412938 -0.389817,-0.743406 v -8.887058 c 0,-0.330468 0.130162,-0.578655 0.389817,-0.743889 0.259656,-0.165233 0.613728,-0.247801 1.062217,-0.247801 z m 49.605324,0 h 1.55781 c 0.4485,0 0.79092,0.08257 1.02695,0.247801 0.25966,0.165234 0.38935,0.413421 0.38935,0.743889 v 8.887058 c 0,0.330468 -0.12969,0.578174 -0.38935,0.743406 -0.23603,0.165234 -0.57845,0.247802 -1.02695,0.247802 h -1.55781 c -0.4485,0 -0.80256,-0.08257 -1.06222,-0.247802 -0.25965,-0.165232 -0.38982,-0.412938 -0.38982,-0.743406 v -8.887058 c 0,-0.330468 0.13017,-0.578655 0.38982,-0.743889 0.25966,-0.165233 0.61372,-0.247801 1.06222,-0.247801 z" />
      <g
         id="g7958"
         style="opacity:0.402243;fill:#583900;fill-opacity:1;filter:url(#filter7960)"
         transform="matrix(0.6689131,0,0,0.6689131,36.602186,21.248553)">
        <path
           d="m 71.547018,72.440197 v -5.32228 h 1.257532 l 1.90535,3.251799 V 67.13062 h 1.232125 v 5.309577 H 74.65909 l -1.892648,-3.200989 v 3.200989 z"
           id="path7902"
           style="font-weight:bold;font-size:48px;font-family:Dhurjati;-inkscape-font-specification:'Dhurjati Bold';text-align:center;text-anchor:middle;white-space:pre;fill:#583900;fill-opacity:1;stroke-width:3.63554" />
        <path
           d="m 80.616465,72.440197 h -3.64557 v -5.32228 h 3.64557 v 0.711331 h -2.426146 v 1.422662 h 1.90535 v 0.711331 h -1.90535 v 1.765625 h 2.426146 z"
           id="path7904"
           style="font-weight:bold;font-size:48px;font-family:Dhurjati;-inkscape-font-specification:'Dhurjati Bold';text-align:center;text-anchor:middle;white-space:pre;fill:#583900;fill-opacity:1;stroke-width:3.63554" />
        <path
           d="m 81.569131,67.117917 h 1.219424 V 71.3732 q 0,0.177833 0.139726,0.266749 0.139724,0.08892 0.38107,0.08892 h 0.558903 q 0.241343,0 0.368368,-0.08892 0.139724,-0.08892 0.139724,-0.266749 v -4.255283 h 1.232128 v 4.369604 q 0,0.228642 -0.127024,0.406475 -0.127023,0.177833 -0.330261,0.304856 -0.203237,0.114321 -0.482688,0.177833 -0.266749,0.06351 -0.558904,0.06351 h -1.041592 q -0.292152,0 -0.571605,-0.06351 -0.266749,-0.06351 -0.469985,-0.177833 -0.203237,-0.127023 -0.330262,-0.304856 -0.127022,-0.177833 -0.127022,-0.406475 z"
           id="path7906"
           style="font-weight:bold;font-size:48px;font-family:Dhurjati;-inkscape-font-specification:'Dhurjati Bold';text-align:center;text-anchor:middle;white-space:pre;fill:#583900;fill-opacity:1;stroke-width:3.63554" />
        <path
           d="m 89.038089,70.077562 1.752924,2.362635 h -1.282938 l -1.714814,-2.311826 v 2.311826 h -1.219424 v -5.32228 h 2.45155 q 0.292155,0 0.558903,0.06351 0.266749,0.06351 0.469987,0.190535 0.21594,0.114321 0.33026,0.292154 0.127023,0.177833 0.127023,0.406475 v 1.054294 q 0,0.228642 -0.127023,0.406474 -0.11432,0.177833 -0.317558,0.304857 -0.203238,0.11432 -0.482689,0.177832 -0.266748,0.06351 -0.546201,0.06351 z m 0.254047,-1.892648 q 0,-0.177833 -0.139724,-0.266749 -0.139727,-0.08892 -0.381072,-0.08892 h -0.978079 v 1.536983 h 0.978079 q 0.241345,0 0.381072,-0.08892 0.139724,-0.08892 0.139724,-0.266749 z"
           id="path7908"
           style="font-weight:bold;font-size:48px;font-family:Dhurjati;-inkscape-font-specification:'Dhurjati Bold';text-align:center;text-anchor:middle;white-space:pre;fill:#583900;fill-opacity:1;stroke-width:3.63554" />
        <path
           d="m 94.652513,67.117917 1.943461,5.32228 h -1.219427 l -0.444581,-1.257532 h -2.32453 l -0.431879,1.257532 h -1.219424 l 1.930756,-5.32228 z m -1.803731,3.353417 H 94.69062 L 93.776053,68.1087 Z"
           id="path7910"
           style="font-weight:bold;font-size:48px;font-family:Dhurjati;-inkscape-font-specification:'Dhurjati Bold';text-align:center;text-anchor:middle;white-space:pre;fill:#583900;fill-opacity:1;stroke-width:3.63554" />
        <path
           d="m 100.83854,72.440197 h -3.645566 v -5.32228 h 1.21943 v 4.610949 h 2.426136 z"
           id="path7912"
           style="font-weight:bold;font-size:48px;font-family:Dhurjati;-inkscape-font-specification:'Dhurjati Bold';text-align:center;text-anchor:middle;white-space:pre;fill:#583900;fill-opacity:1;stroke-width:3.63554" />
        <path
           d="m 104.49679,72.440197 v -5.32228 h 1.25753 l 1.90535,3.251799 V 67.13062 h 1.23213 v 5.309577 h -1.28294 l -1.89264,-3.200989 v 3.200989 z"
           id="path7914"
           style="font-weight:bold;font-size:48px;font-family:Dhurjati;-inkscape-font-specification:'Dhurjati Bold';text-align:center;text-anchor:middle;white-space:pre;fill:#583900;fill-opacity:1;stroke-width:3.63554" />
        <path
           d="m 113.56624,72.440197 h -3.64557 v -5.32228 h 3.64557 v 0.711331 h -2.42615 v 1.422662 h 1.90535 v 0.711331 h -1.90535 v 1.765625 h 2.42615 z"
           id="path7916"
           style="font-weight:bold;font-size:48px;font-family:Dhurjati;-inkscape-font-specification:'Dhurjati Bold';text-align:center;text-anchor:middle;white-space:pre;fill:#583900;fill-opacity:1;stroke-width:3.63554" />
        <path
           d="m 118.39312,67.829248 h -1.44807 v 4.610949 h -1.23213 v -4.610949 h -1.44806 v -0.711331 h 4.12826 z"
           id="path7918"
           style="font-weight:bold;font-size:48px;font-family:Dhurjati;-inkscape-font-specification:'Dhurjati Bold';text-align:center;text-anchor:middle;white-space:pre;fill:#583900;fill-opacity:1;stroke-width:3.63554" />
        <path
           d="m 123.2073,72.440197 -0.90187,-3.137478 -0.90186,3.137478 h -1.21942 l -1.52429,-5.32228 h 1.21943 l 0.91457,3.188287 0.90186,-3.188287 h 1.23213 l 0.88916,3.188287 0.91457,-3.188287 h 1.23213 l -1.52428,5.32228 z"
           id="path7920"
           style="font-weight:bold;font-size:48px;font-family:Dhurjati;-inkscape-font-specification:'Dhurjati Bold';text-align:center;text-anchor:middle;white-space:pre;fill:#583900;fill-opacity:1;stroke-width:3.63554" />
        <path
           d="m 126.39558,68.070593 q 0,-0.228642 0.12702,-0.406475 0.12703,-0.177833 0.33026,-0.292154 0.20324,-0.127023 0.46999,-0.190535 0.27945,-0.06351 0.57161,-0.06351 h 1.04159 q 0.29215,0 0.5589,0.06351 0.27945,0.06351 0.48269,0.190535 0.20323,0.114321 0.33026,0.292154 0.12702,0.177833 0.12702,0.406475 v 3.416928 q 0,0.228642 -0.12702,0.406475 -0.12703,0.177833 -0.33026,0.304856 -0.20324,0.114321 -0.48269,0.177833 -0.26675,0.06351 -0.5589,0.06351 h -1.04159 q -0.29216,0 -0.57161,-0.06351 -0.26675,-0.06351 -0.46999,-0.177833 -0.20323,-0.127023 -0.33026,-0.304856 -0.12702,-0.177833 -0.12702,-0.406475 z m 2.80722,0.114321 q 0,-0.177833 -0.13973,-0.266749 -0.12702,-0.08892 -0.36837,-0.08892 h -0.5589 q -0.24134,0 -0.38107,0.08892 -0.13973,0.08892 -0.13973,0.266749 V 71.3732 q 0,0.177833 0.13973,0.266749 0.13973,0.08892 0.38107,0.08892 h 0.5589 q 0.24135,0 0.36837,-0.08892 0.13973,-0.08892 0.13973,-0.266749 z"
           id="path7922"
           style="font-weight:bold;font-size:48px;font-family:Dhurjati;-inkscape-font-specification:'Dhurjati Bold';text-align:center;text-anchor:middle;white-space:pre;fill:#583900;fill-opacity:1;stroke-width:3.63554" />
        <path
           d="m 133.87724,70.077562 1.75292,2.362635 h -1.28294 l -1.71481,-2.311826 v 2.311826 h -1.21942 v -5.32228 h 2.45155 q 0.29215,0 0.5589,0.06351 0.26675,0.06351 0.46999,0.190535 0.21594,0.114321 0.33026,0.292154 0.12702,0.177833 0.12702,0.406475 v 1.054294 q 0,0.228642 -0.12702,0.406474 -0.11432,0.177833 -0.31756,0.304857 -0.20324,0.11432 -0.48269,0.177832 -0.26675,0.06351 -0.5462,0.06351 z m 0.25405,-1.892648 q 0,-0.177833 -0.13973,-0.266749 -0.13973,-0.08892 -0.38107,-0.08892 h -0.97808 v 1.536983 h 0.97808 q 0.24134,0 0.38107,-0.08892 0.13973,-0.08892 0.13973,-0.266749 z"
           id="path7924"
           style="font-weight:bold;font-size:48px;font-family:Dhurjati;-inkscape-font-specification:'Dhurjati Bold';text-align:center;text-anchor:middle;white-space:pre;fill:#583900;fill-opacity:1;stroke-width:3.63554" />
        <path
           d="m 136.10014,72.440197 v -5.32228 h 1.21942 v 2.629384 l 1.91806,-2.629384 h 1.27023 l -1.94346,2.680194 1.94346,2.642086 h -1.27023 l -1.91806,-2.603979 v 2.603979 z"
           id="path7926"
           style="font-weight:bold;font-size:48px;font-family:Dhurjati;-inkscape-font-specification:'Dhurjati Bold';text-align:center;text-anchor:middle;white-space:pre;fill:#583900;fill-opacity:1;stroke-width:3.63554" />
        <path
           id="path7928"
           style="fill:#583900;fill-opacity:1;stroke:none;stroke-width:0.0139897px;stroke-linecap:butt;stroke-linejoin:miter;stroke-opacity:1"
           d="m 145.53754,67.5048 c -0.0107,0.0041 -0.0216,0.009 -0.0326,0.01469 v 0 c -0.0893,0.04694 -0.18325,0.0996 -0.26906,0.176615 -0.0919,0.08256 -0.15209,0.212504 -0.2444,0.287508 -0.0503,0.0409 -0.08,0.04186 -0.14526,0.07022 -0.0643,0.02797 -0.12944,0.01952 -0.23631,0.09089 -0.10484,0.07001 -0.2702,0.264834 -0.37013,0.3461 -0.0984,0.08003 -0.1596,0.106781 -0.22263,0.154318 -0.0624,0.04702 -0.10117,0.07275 -0.15516,0.126371 -0.0536,0.05326 -0.10798,0.14148 -0.16171,0.191926 -0.0533,0.05008 -0.11049,0.06667 -0.16591,0.111422 -0.0599,0.04836 -0.12415,0.09785 -0.17719,0.166982 -0.061,0.07947 -0.0953,0.173354 -0.14356,0.260303 -0.0534,0.09616 -0.12011,0.192335 -0.16165,0.289066 -0.0309,0.07216 -0.0603,0.150586 -0.0612,0.208345 -9e-4,0.05847 0.0255,0.09123 0.03,0.124884 0.005,0.03394 -0.0136,0.06836 -0.0338,0.126671 -0.0205,0.05864 -0.0439,0.144085 -0.0531,0.219261 -0.01,0.07614 -0.005,0.146577 0.0245,0.188568 0.0303,0.04277 0.0871,0.0562 0.15496,0.04443 0.0393,-0.0068 0.0789,-0.0236 0.11936,-0.03666 0.0348,-0.01126 0.078,-0.04336 0.10591,-0.03587 0.0152,0.0041 0.0238,0.01216 0.0266,0.04246 0.004,0.04337 0.004,0.122823 0.0184,0.201615 0.0147,0.08032 0.0448,0.160583 0.0927,0.212468 0.0491,0.05309 0.11681,0.07641 0.18381,0.07057 0.0682,-0.0059 0.132,-0.04044 0.1971,-0.08416 0.0658,-0.04416 0.12678,-0.09444 0.17693,-0.124604 0.0505,-0.03041 0.09,-0.04039 0.12772,-0.0237 0.0382,0.0169 0.0738,0.06002 0.12992,0.02063 0.0565,-0.03972 0.13082,-0.165009 0.21116,-0.267092 0.0807,-0.102494 0.16829,-0.182629 0.29797,-0.277187 0.13199,-0.09624 0.30976,-0.208968 0.49865,-0.293046 0.19527,-0.08693 0.40515,-0.144474 0.59749,-0.182711 0.20006,-0.03976 0.38029,-0.05856 0.58804,-0.01265 0.2189,0.04838 0.47291,0.169058 0.58529,0.35893 0.1178,0.199063 0.0698,0.462886 0.11677,0.585147 0.0481,0.125217 0.19441,0.110088 0.40828,0.05874 0.22113,-0.05309 0.51451,-0.144683 0.78677,-0.298766 0.28061,-0.158832 0.52465,-0.37771 0.67508,-0.649101 0.14985,-0.270344 0.20055,-0.581346 0.28519,-0.818098 0.0837,-0.234077 0.20269,-0.40178 0.21295,-0.553665 0.0101,-0.149642 -0.10649,-0.274291 -0.12698,-0.378271 -0.0202,-0.102389 -1.1e-4,-0.127347 -0.0171,-0.239441 -0.0167,-0.110309 0.0488,-0.355093 -0.0968,-0.410095 -0.13206,-0.04991 -0.30054,0.0249 -0.55194,0.11486 0.03,-0.161688 0.0105,-0.292559 -0.096,-0.356119 -0.0956,-0.05708 -0.22782,-0.03697 -0.4231,0.0033 -0.0244,-0.14869 -0.17698,-0.221749 -0.35471,-0.212077 -0.14714,0.008 -0.25004,0.06953 -0.50164,0.207572 -0.0525,-0.130409 -0.19429,-0.144071 -0.34563,-0.131056 -0.13443,0.01156 -0.24391,0.03714 -0.45235,0.173227 -0.0464,-0.08126 -0.0602,-0.106362 -0.18271,-0.100964 -0.11878,0.0052 -0.38604,0.168277 -0.52585,0.202647 -0.13529,0.03305 -0.20096,-0.0025 -0.31215,0.02472 -0.01,0.0024 -0.0204,0.0057 -0.0311,0.0098 z m 0.24586,2.640515 c -0.11116,0.01962 -0.22529,0.04721 -0.33746,0.08386 -0.24786,0.081 -0.48855,0.206334 -0.66783,0.347987 -0.1754,0.138603 -0.29791,0.297482 -0.3828,0.490298 -0.0857,0.19469 -0.13566,0.429894 -0.13013,0.65435 0.006,0.232856 0.0708,0.458027 0.10864,0.582214 0.0389,0.127632 0.046,0.139069 0.12683,0.135702 0.0822,-0.0034 0.24324,-0.02228 0.33489,-0.05033 0.0931,-0.02851 0.11089,-0.06446 0.13045,-0.128287 0.0195,-0.06354 0.0395,-0.152284 0.0544,-0.24774 0.0146,-0.0945 0.024,-0.195167 0.0333,-0.294686 0.0751,0.01333 0.15149,0.02694 0.23994,0.02793 0.0902,9.65e-4 0.19288,-0.01104 0.34443,-0.03511 0.15596,-0.02476 0.3663,-0.06264 0.57245,-0.158582 0.21227,-0.09877 0.41394,-0.255478 0.54655,-0.422802 0.13328,-0.168158 0.18847,-0.338608 0.17311,-0.494014 -0.015,-0.152004 -0.0972,-0.286152 -0.22385,-0.379366 -0.12204,-0.08978 -0.28443,-0.140821 -0.51186,-0.145558 -0.12308,-0.0026 -0.26443,0.0085 -0.41103,0.03413 z" />
        <path
           d="m 71.547018,72.440197 v -5.32228 h 1.257532 l 1.90535,3.251799 V 67.13062 h 1.232125 v 5.309577 H 74.65909 l -1.892648,-3.200989 v 3.200989 z"
           id="path7930"
           style="font-weight:bold;font-size:48px;font-family:Dhurjati;-inkscape-font-specification:'Dhurjati Bold';text-align:center;text-anchor:middle;white-space:pre;fill:#583900;fill-opacity:1;stroke-width:3.63554" />
        <path
           d="m 80.616465,72.440197 h -3.64557 v -5.32228 h 3.64557 v 0.711331 h -2.426146 v 1.422662 h 1.90535 v 0.711331 h -1.90535 v 1.765625 h 2.426146 z"
           id="path7932"
           style="font-weight:bold;font-size:48px;font-family:Dhurjati;-inkscape-font-specification:'Dhurjati Bold';text-align:center;text-anchor:middle;white-space:pre;fill:#583900;fill-opacity:1;stroke-width:3.63554" />
        <path
           d="m 81.569131,67.117917 h 1.219424 V 71.3732 q 0,0.177833 0.139726,0.266749 0.139724,0.08892 0.38107,0.08892 h 0.558903 q 0.241343,0 0.368368,-0.08892 0.139724,-0.08892 0.139724,-0.266749 v -4.255283 h 1.232128 v 4.369604 q 0,0.228642 -0.127024,0.406475 -0.127023,0.177833 -0.330261,0.304856 -0.203237,0.114321 -0.482688,0.177833 -0.266749,0.06351 -0.558904,0.06351 h -1.041592 q -0.292152,0 -0.571605,-0.06351 -0.266749,-0.06351 -0.469985,-0.177833 -0.203237,-0.127023 -0.330262,-0.304856 -0.127022,-0.177833 -0.127022,-0.406475 z"
           id="path7934"
           style="font-weight:bold;font-size:48px;font-family:Dhurjati;-inkscape-font-specification:'Dhurjati Bold';text-align:center;text-anchor:middle;white-space:pre;fill:#583900;fill-opacity:1;stroke-width:3.63554" />
        <path
           d="m 89.038089,70.077562 1.752924,2.362635 h -1.282938 l -1.714814,-2.311826 v 2.311826 h -1.219424 v -5.32228 h 2.45155 q 0.292155,0 0.558903,0.06351 0.266749,0.06351 0.469987,0.190535 0.21594,0.114321 0.33026,0.292154 0.127023,0.177833 0.127023,0.406475 v 1.054294 q 0,0.228642 -0.127023,0.406474 -0.11432,0.177833 -0.317558,0.304857 -0.203238,0.11432 -0.482689,0.177832 -0.266748,0.06351 -0.546201,0.06351 z m 0.254047,-1.892648 q 0,-0.177833 -0.139724,-0.266749 -0.139727,-0.08892 -0.381072,-0.08892 h -0.978079 v 1.536983 h 0.978079 q 0.241345,0 0.381072,-0.08892 0.139724,-0.08892 0.139724,-0.266749 z"
           id="path7936"
           style="font-weight:bold;font-size:48px;font-family:Dhurjati;-inkscape-font-specification:'Dhurjati Bold';text-align:center;text-anchor:middle;white-space:pre;fill:#583900;fill-opacity:1;stroke-width:3.63554" />
        <path
           d="m 94.652513,67.117917 1.943461,5.32228 h -1.219427 l -0.444581,-1.257532 h -2.32453 l -0.431879,1.257532 h -1.219424 l 1.930756,-5.32228 z m -1.803731,3.353417 H 94.69062 L 93.776053,68.1087 Z"
           id="path7938"
           style="font-weight:bold;font-size:48px;font-family:Dhurjati;-inkscape-font-specification:'Dhurjati Bold';text-align:center;text-anchor:middle;white-space:pre;fill:#583900;fill-opacity:1;stroke-width:3.63554" />
        <path
           d="m 100.83854,72.440197 h -3.645566 v -5.32228 h 1.21943 v 4.610949 h 2.426136 z"
           id="path7940"
           style="font-weight:bold;font-size:48px;font-family:Dhurjati;-inkscape-font-specification:'Dhurjati Bold';text-align:center;text-anchor:middle;white-space:pre;fill:#583900;fill-opacity:1;stroke-width:3.63554" />
        <path
           d="m 104.49679,72.440197 v -5.32228 h 1.25753 l 1.90535,3.251799 V 67.13062 h 1.23213 v 5.309577 h -1.28294 l -1.89264,-3.200989 v 3.200989 z"
           id="path7942"
           style="font-weight:bold;font-size:48px;font-family:Dhurjati;-inkscape-font-specification:'Dhurjati Bold';text-align:center;text-anchor:middle;white-space:pre;fill:#583900;fill-opacity:1;stroke-width:3.63554" />
        <path
           d="m 113.56624,72.440197 h -3.64557 v -5.32228 h 3.64557 v 0.711331 h -2.42615 v 1.422662 h 1.90535 v 0.711331 h -1.90535 v 1.765625 h 2.42615 z"
           id="path7944"
           style="font-weight:bold;font-size:48px;font-family:Dhurjati;-inkscape-font-specification:'Dhurjati Bold';text-align:center;text-anchor:middle;white-space:pre;fill:#583900;fill-opacity:1;stroke-width:3.63554" />
        <path
           d="m 118.39312,67.829248 h -1.44807 v 4.610949 h -1.23213 v -4.610949 h -1.44806 v -0.711331 h 4.12826 z"
           id="path7946"
           style="font-weight:bold;font-size:48px;font-family:Dhurjati;-inkscape-font-specification:'Dhurjati Bold';text-align:center;text-anchor:middle;white-space:pre;fill:#583900;fill-opacity:1;stroke-width:3.63554" />
        <path
           d="m 123.2073,72.440197 -0.90187,-3.137478 -0.90186,3.137478 h -1.21942 l -1.52429,-5.32228 h 1.21943 l 0.91457,3.188287 0.90186,-3.188287 h 1.23213 l 0.88916,3.188287 0.91457,-3.188287 h 1.23213 l -1.52428,5.32228 z"
           id="path7948"
           style="font-weight:bold;font-size:48px;font-family:Dhurjati;-inkscape-font-specification:'Dhurjati Bold';text-align:center;text-anchor:middle;white-space:pre;fill:#583900;fill-opacity:1;stroke-width:3.63554" />
        <path
           d="m 126.39558,68.070593 q 0,-0.228642 0.12702,-0.406475 0.12703,-0.177833 0.33026,-0.292154 0.20324,-0.127023 0.46999,-0.190535 0.27945,-0.06351 0.57161,-0.06351 h 1.04159 q 0.29215,0 0.5589,0.06351 0.27945,0.06351 0.48269,0.190535 0.20323,0.114321 0.33026,0.292154 0.12702,0.177833 0.12702,0.406475 v 3.416928 q 0,0.228642 -0.12702,0.406475 -0.12703,0.177833 -0.33026,0.304856 -0.20324,0.114321 -0.48269,0.177833 -0.26675,0.06351 -0.5589,0.06351 h -1.04159 q -0.29216,0 -0.57161,-0.06351 -0.26675,-0.06351 -0.46999,-0.177833 -0.20323,-0.127023 -0.33026,-0.304856 -0.12702,-0.177833 -0.12702,-0.406475 z m 2.80722,0.114321 q 0,-0.177833 -0.13973,-0.266749 -0.12702,-0.08892 -0.36837,-0.08892 h -0.5589 q -0.24134,0 -0.38107,0.08892 -0.13973,0.08892 -0.13973,0.266749 V 71.3732 q 0,0.177833 0.13973,0.266749 0.13973,0.08892 0.38107,0.08892 h 0.5589 q 0.24135,0 0.36837,-0.08892 0.13973,-0.08892 0.13973,-0.266749 z"
           id="path7950"
           style="font-weight:bold;font-size:48px;font-family:Dhurjati;-inkscape-font-specification:'Dhurjati Bold';text-align:center;text-anchor:middle;white-space:pre;fill:#583900;fill-opacity:1;stroke-width:3.63554" />
        <path
           d="m 133.87724,70.077562 1.75292,2.362635 h -1.28294 l -1.71481,-2.311826 v 2.311826 h -1.21942 v -5.32228 h 2.45155 q 0.29215,0 0.5589,0.06351 0.26675,0.06351 0.46999,0.190535 0.21594,0.114321 0.33026,0.292154 0.12702,0.177833 0.12702,0.406475 v 1.054294 q 0,0.228642 -0.12702,0.406474 -0.11432,0.177833 -0.31756,0.304857 -0.20324,0.11432 -0.48269,0.177832 -0.26675,0.06351 -0.5462,0.06351 z m 0.25405,-1.892648 q 0,-0.177833 -0.13973,-0.266749 -0.13973,-0.08892 -0.38107,-0.08892 h -0.97808 v 1.536983 h 0.97808 q 0.24134,0 0.38107,-0.08892 0.13973,-0.08892 0.13973,-0.266749 z"
           id="path7952"
           style="font-weight:bold;font-size:48px;font-family:Dhurjati;-inkscape-font-specification:'Dhurjati Bold';text-align:center;text-anchor:middle;white-space:pre;fill:#583900;fill-opacity:1;stroke-width:3.63554" />
        <path
           d="m 136.10014,72.440197 v -5.32228 h 1.21942 v 2.629384 l 1.91806,-2.629384 h 1.27023 l -1.94346,2.680194 1.94346,2.642086 h -1.27023 l -1.91806,-2.603979 v 2.603979 z"
           id="path7954"
           style="font-weight:bold;font-size:48px;font-family:Dhurjati;-inkscape-font-specification:'Dhurjati Bold';text-align:center;text-anchor:middle;white-space:pre;fill:#583900;fill-opacity:1;stroke-width:3.63554" />
        <path
           id="path7956"
           style="fill:#583900;fill-opacity:1;stroke:none;stroke-width:0.0139897px;stroke-linecap:butt;stroke-linejoin:miter;stroke-opacity:1"
           d="m 145.53754,67.5048 c -0.0107,0.0041 -0.0216,0.009 -0.0326,0.01469 v 0 c -0.0893,0.04694 -0.18325,0.0996 -0.26906,0.176615 -0.0919,0.08256 -0.15209,0.212504 -0.2444,0.287508 -0.0503,0.0409 -0.08,0.04186 -0.14526,0.07022 -0.0643,0.02797 -0.12944,0.01952 -0.23631,0.09089 -0.10484,0.07001 -0.2702,0.264834 -0.37013,0.3461 -0.0984,0.08003 -0.1596,0.106781 -0.22263,0.154318 -0.0624,0.04702 -0.10117,0.07275 -0.15516,0.126371 -0.0536,0.05326 -0.10798,0.14148 -0.16171,0.191926 -0.0533,0.05008 -0.11049,0.06667 -0.16591,0.111422 -0.0599,0.04836 -0.12415,0.09785 -0.17719,0.166982 -0.061,0.07947 -0.0953,0.173354 -0.14356,0.260303 -0.0534,0.09616 -0.12011,0.192335 -0.16165,0.289066 -0.0309,0.07216 -0.0603,0.150586 -0.0612,0.208345 -9e-4,0.05847 0.0255,0.09123 0.03,0.124884 0.005,0.03394 -0.0136,0.06836 -0.0338,0.126671 -0.0205,0.05864 -0.0439,0.144085 -0.0531,0.219261 -0.01,0.07614 -0.005,0.146577 0.0245,0.188568 0.0303,0.04277 0.0871,0.0562 0.15496,0.04443 0.0393,-0.0068 0.0789,-0.0236 0.11936,-0.03666 0.0348,-0.01126 0.078,-0.04336 0.10591,-0.03587 0.0152,0.0041 0.0238,0.01216 0.0266,0.04246 0.004,0.04337 0.004,0.122823 0.0184,0.201615 0.0147,0.08032 0.0448,0.160583 0.0927,0.212468 0.0491,0.05309 0.11681,0.07641 0.18381,0.07057 0.0682,-0.0059 0.132,-0.04044 0.1971,-0.08416 0.0658,-0.04416 0.12678,-0.09444 0.17693,-0.124604 0.0505,-0.03041 0.09,-0.04039 0.12772,-0.0237 0.0382,0.0169 0.0738,0.06002 0.12992,0.02063 0.0565,-0.03972 0.13082,-0.165009 0.21116,-0.267092 0.0807,-0.102494 0.16829,-0.182629 0.29797,-0.277187 0.13199,-0.09624 0.30976,-0.208968 0.49865,-0.293046 0.19527,-0.08693 0.40515,-0.144474 0.59749,-0.182711 0.20006,-0.03976 0.38029,-0.05856 0.58804,-0.01265 0.2189,0.04838 0.47291,0.169058 0.58529,0.35893 0.1178,0.199063 0.0698,0.462886 0.11677,0.585147 0.0481,0.125217 0.19441,0.110088 0.40828,0.05874 0.22113,-0.05309 0.51451,-0.144683 0.78677,-0.298766 0.28061,-0.158832 0.52465,-0.37771 0.67508,-0.649101 0.14985,-0.270344 0.20055,-0.581346 0.28519,-0.818098 0.0837,-0.234077 0.20269,-0.40178 0.21295,-0.553665 0.0101,-0.149642 -0.10649,-0.274291 -0.12698,-0.378271 -0.0202,-0.102389 -1.1e-4,-0.127347 -0.0171,-0.239441 -0.0167,-0.110309 0.0488,-0.355093 -0.0968,-0.410095 -0.13206,-0.04991 -0.30054,0.0249 -0.55194,0.11486 0.03,-0.161688 0.0105,-0.292559 -0.096,-0.356119 -0.0956,-0.05708 -0.22782,-0.03697 -0.4231,0.0033 -0.0244,-0.14869 -0.17698,-0.221749 -0.35471,-0.212077 -0.14714,0.008 -0.25004,0.06953 -0.50164,0.207572 -0.0525,-0.130409 -0.19429,-0.144071 -0.34563,-0.131056 -0.13443,0.01156 -0.24391,0.03714 -0.45235,0.173227 -0.0464,-0.08126 -0.0602,-0.106362 -0.18271,-0.100964 -0.11878,0.0052 -0.38604,0.168277 -0.52585,0.202647 -0.13529,0.03305 -0.20096,-0.0025 -0.31215,0.02472 -0.01,0.0024 -0.0204,0.0057 -0.0311,0.0098 z m 0.24586,2.640515 c -0.11116,0.01962 -0.22529,0.04721 -0.33746,0.08386 -0.24786,0.081 -0.48855,0.206334 -0.66783,0.347987 -0.1754,0.138603 -0.29791,0.297482 -0.3828,0.490298 -0.0857,0.19469 -0.13566,0.429894 -0.13013,0.65435 0.006,0.232856 0.0708,0.458027 0.10864,0.582214 0.0389,0.127632 0.046,0.139069 0.12683,0.135702 0.0822,-0.0034 0.24324,-0.02228 0.33489,-0.05033 0.0931,-0.02851 0.11089,-0.06446 0.13045,-0.128287 0.0195,-0.06354 0.0395,-0.152284 0.0544,-0.24774 0.0146,-0.0945 0.024,-0.195167 0.0333,-0.294686 0.0751,0.01333 0.15149,0.02694 0.23994,0.02793 0.0902,9.65e-4 0.19288,-0.01104 0.34443,-0.03511 0.15596,-0.02476 0.3663,-0.06264 0.57245,-0.158582 0.21227,-0.09877 0.41394,-0.255478 0.54655,-0.422802 0.13328,-0.168158 0.18847,-0.338608 0.17311,-0.494014 -0.015,-0.152004 -0.0972,-0.286152 -0.22385,-0.379366 -0.12204,-0.08978 -0.28443,-0.140821 -0.51186,-0.145558 -0.12308,-0.0026 -0.26443,0.0085 -0.41103,0.03413 z" />
      </g>
      <g
         id="g7898"
         transform="matrix(0.6689131,0,0,0.6689131,36.602186,21.248553)">
        <path
           d="m 71.547018,72.440197 v -5.32228 h 1.257532 l 1.90535,3.251799 V 67.13062 h 1.232125 v 5.309577 H 74.65909 l -1.892648,-3.200989 v 3.200989 z"
           id="path1835"
           style="font-weight:bold;font-size:48px;font-family:Dhurjati;-inkscape-font-specification:'Dhurjati Bold';text-align:center;text-anchor:middle;white-space:pre;fill:#ffffff;fill-opacity:1;stroke-width:3.63554" />
        <path
           d="m 80.616465,72.440197 h -3.64557 v -5.32228 h 3.64557 v 0.711331 h -2.426146 v 1.422662 h 1.90535 v 0.711331 h -1.90535 v 1.765625 h 2.426146 z"
           id="path1837"
           style="font-weight:bold;font-size:48px;font-family:Dhurjati;-inkscape-font-specification:'Dhurjati Bold';text-align:center;text-anchor:middle;white-space:pre;fill:#ffffff;fill-opacity:1;stroke-width:3.63554" />
        <path
           d="m 81.569131,67.117917 h 1.219424 V 71.3732 q 0,0.177833 0.139726,0.266749 0.139724,0.08892 0.38107,0.08892 h 0.558903 q 0.241343,0 0.368368,-0.08892 0.139724,-0.08892 0.139724,-0.266749 v -4.255283 h 1.232128 v 4.369604 q 0,0.228642 -0.127024,0.406475 -0.127023,0.177833 -0.330261,0.304856 -0.203237,0.114321 -0.482688,0.177833 -0.266749,0.06351 -0.558904,0.06351 h -1.041592 q -0.292152,0 -0.571605,-0.06351 -0.266749,-0.06351 -0.469985,-0.177833 -0.203237,-0.127023 -0.330262,-0.304856 -0.127022,-0.177833 -0.127022,-0.406475 z"
           id="path1839"
           style="font-weight:bold;font-size:48px;font-family:Dhurjati;-inkscape-font-specification:'Dhurjati Bold';text-align:center;text-anchor:middle;white-space:pre;fill:#ffffff;fill-opacity:1;stroke-width:3.63554" />
        <path
           d="m 89.038089,70.077562 1.752924,2.362635 h -1.282938 l -1.714814,-2.311826 v 2.311826 h -1.219424 v -5.32228 h 2.45155 q 0.292155,0 0.558903,0.06351 0.266749,0.06351 0.469987,0.190535 0.21594,0.114321 0.33026,0.292154 0.127023,0.177833 0.127023,0.406475 v 1.054294 q 0,0.228642 -0.127023,0.406474 -0.11432,0.177833 -0.317558,0.304857 -0.203238,0.11432 -0.482689,0.177832 -0.266748,0.06351 -0.546201,0.06351 z m 0.254047,-1.892648 q 0,-0.177833 -0.139724,-0.266749 -0.139727,-0.08892 -0.381072,-0.08892 h -0.978079 v 1.536983 h 0.978079 q 0.241345,0 0.381072,-0.08892 0.139724,-0.08892 0.139724,-0.266749 z"
           id="path1841"
           style="font-weight:bold;font-size:48px;font-family:Dhurjati;-inkscape-font-specification:'Dhurjati Bold';text-align:center;text-anchor:middle;white-space:pre;fill:#ffffff;fill-opacity:1;stroke-width:3.63554" />
        <path
           d="m 94.652513,67.117917 1.943461,5.32228 h -1.219427 l -0.444581,-1.257532 h -2.32453 l -0.431879,1.257532 h -1.219424 l 1.930756,-5.32228 z m -1.803731,3.353417 H 94.69062 L 93.776053,68.1087 Z"
           id="path1843"
           style="font-weight:bold;font-size:48px;font-family:Dhurjati;-inkscape-font-specification:'Dhurjati Bold';text-align:center;text-anchor:middle;white-space:pre;fill:#ffffff;fill-opacity:1;stroke-width:3.63554" />
        <path
           d="m 100.83854,72.440197 h -3.645566 v -5.32228 h 1.21943 v 4.610949 h 2.426136 z"
           id="path1845"
           style="font-weight:bold;font-size:48px;font-family:Dhurjati;-inkscape-font-specification:'Dhurjati Bold';text-align:center;text-anchor:middle;white-space:pre;fill:#ffffff;fill-opacity:1;stroke-width:3.63554" />
        <path
           d="m 104.49679,72.440197 v -5.32228 h 1.25753 l 1.90535,3.251799 V 67.13062 h 1.23213 v 5.309577 h -1.28294 l -1.89264,-3.200989 v 3.200989 z"
           id="path1847"
           style="font-weight:bold;font-size:48px;font-family:Dhurjati;-inkscape-font-specification:'Dhurjati Bold';text-align:center;text-anchor:middle;white-space:pre;fill:#ffffff;fill-opacity:1;stroke-width:3.63554" />
        <path
           d="m 113.56624,72.440197 h -3.64557 v -5.32228 h 3.64557 v 0.711331 h -2.42615 v 1.422662 h 1.90535 v 0.711331 h -1.90535 v 1.765625 h 2.42615 z"
           id="path1849"
           style="font-weight:bold;font-size:48px;font-family:Dhurjati;-inkscape-font-specification:'Dhurjati Bold';text-align:center;text-anchor:middle;white-space:pre;fill:#ffffff;fill-opacity:1;stroke-width:3.63554" />
        <path
           d="m 118.39312,67.829248 h -1.44807 v 4.610949 h -1.23213 v -4.610949 h -1.44806 v -0.711331 h 4.12826 z"
           id="path1851"
           style="font-weight:bold;font-size:48px;font-family:Dhurjati;-inkscape-font-specification:'Dhurjati Bold';text-align:center;text-anchor:middle;white-space:pre;fill:#ffffff;fill-opacity:1;stroke-width:3.63554" />
        <path
           d="m 123.2073,72.440197 -0.90187,-3.137478 -0.90186,3.137478 h -1.21942 l -1.52429,-5.32228 h 1.21943 l 0.91457,3.188287 0.90186,-3.188287 h 1.23213 l 0.88916,3.188287 0.91457,-3.188287 h 1.23213 l -1.52428,5.32228 z"
           id="path1853"
           style="font-weight:bold;font-size:48px;font-family:Dhurjati;-inkscape-font-specification:'Dhurjati Bold';text-align:center;text-anchor:middle;white-space:pre;fill:#ffffff;fill-opacity:1;stroke-width:3.63554" />
        <path
           d="m 126.39558,68.070593 q 0,-0.228642 0.12702,-0.406475 0.12703,-0.177833 0.33026,-0.292154 0.20324,-0.127023 0.46999,-0.190535 0.27945,-0.06351 0.57161,-0.06351 h 1.04159 q 0.29215,0 0.5589,0.06351 0.27945,0.06351 0.48269,0.190535 0.20323,0.114321 0.33026,0.292154 0.12702,0.177833 0.12702,0.406475 v 3.416928 q 0,0.228642 -0.12702,0.406475 -0.12703,0.177833 -0.33026,0.304856 -0.20324,0.114321 -0.48269,0.177833 -0.26675,0.06351 -0.5589,0.06351 h -1.04159 q -0.29216,0 -0.57161,-0.06351 -0.26675,-0.06351 -0.46999,-0.177833 -0.20323,-0.127023 -0.33026,-0.304856 -0.12702,-0.177833 -0.12702,-0.406475 z m 2.80722,0.114321 q 0,-0.177833 -0.13973,-0.266749 -0.12702,-0.08892 -0.36837,-0.08892 h -0.5589 q -0.24134,0 -0.38107,0.08892 -0.13973,0.08892 -0.13973,0.266749 V 71.3732 q 0,0.177833 0.13973,0.266749 0.13973,0.08892 0.38107,0.08892 h 0.5589 q 0.24135,0 0.36837,-0.08892 0.13973,-0.08892 0.13973,-0.266749 z"
           id="path1855"
           style="font-weight:bold;font-size:48px;font-family:Dhurjati;-inkscape-font-specification:'Dhurjati Bold';text-align:center;text-anchor:middle;white-space:pre;fill:#ffffff;fill-opacity:1;stroke-width:3.63554" />
        <path
           d="m 133.87724,70.077562 1.75292,2.362635 h -1.28294 l -1.71481,-2.311826 v 2.311826 h -1.21942 v -5.32228 h 2.45155 q 0.29215,0 0.5589,0.06351 0.26675,0.06351 0.46999,0.190535 0.21594,0.114321 0.33026,0.292154 0.12702,0.177833 0.12702,0.406475 v 1.054294 q 0,0.228642 -0.12702,0.406474 -0.11432,0.177833 -0.31756,0.304857 -0.20324,0.11432 -0.48269,0.177832 -0.26675,0.06351 -0.5462,0.06351 z m 0.25405,-1.892648 q 0,-0.177833 -0.13973,-0.266749 -0.13973,-0.08892 -0.38107,-0.08892 h -0.97808 v 1.536983 h 0.97808 q 0.24134,0 0.38107,-0.08892 0.13973,-0.08892 0.13973,-0.266749 z"
           id="path1857"
           style="font-weight:bold;font-size:48px;font-family:Dhurjati;-inkscape-font-specification:'Dhurjati Bold';text-align:center;text-anchor:middle;white-space:pre;fill:#ffffff;fill-opacity:1;stroke-width:3.63554" />
        <path
           d="m 136.10014,72.440197 v -5.32228 h 1.21942 v 2.629384 l 1.91806,-2.629384 h 1.27023 l -1.94346,2.680194 1.94346,2.642086 h -1.27023 l -1.91806,-2.603979 v 2.603979 z"
           id="path1859"
           style="font-weight:bold;font-size:48px;font-family:Dhurjati;-inkscape-font-specification:'Dhurjati Bold';text-align:center;text-anchor:middle;white-space:pre;fill:#ffffff;fill-opacity:1;stroke-width:3.63554" />
        <path
           id="path1136"
           style="fill:#ffffff;fill-opacity:1;stroke:none;stroke-width:0.0139897px;stroke-linecap:butt;stroke-linejoin:miter;stroke-opacity:1"
           d="m 145.53754,67.5048 c -0.0107,0.0041 -0.0216,0.009 -0.0326,0.01469 v 0 c -0.0893,0.04694 -0.18325,0.0996 -0.26906,0.176615 -0.0919,0.08256 -0.15209,0.212504 -0.2444,0.287508 -0.0503,0.0409 -0.08,0.04186 -0.14526,0.07022 -0.0643,0.02797 -0.12944,0.01952 -0.23631,0.09089 -0.10484,0.07001 -0.2702,0.264834 -0.37013,0.3461 -0.0984,0.08003 -0.1596,0.106781 -0.22263,0.154318 -0.0624,0.04702 -0.10117,0.07275 -0.15516,0.126371 -0.0536,0.05326 -0.10798,0.14148 -0.16171,0.191926 -0.0533,0.05008 -0.11049,0.06667 -0.16591,0.111422 -0.0599,0.04836 -0.12415,0.09785 -0.17719,0.166982 -0.061,0.07947 -0.0953,0.173354 -0.14356,0.260303 -0.0534,0.09616 -0.12011,0.192335 -0.16165,0.289066 -0.0309,0.07216 -0.0603,0.150586 -0.0612,0.208345 -9e-4,0.05847 0.0255,0.09123 0.03,0.124884 0.005,0.03394 -0.0136,0.06836 -0.0338,0.126671 -0.0205,0.05864 -0.0439,0.144085 -0.0531,0.219261 -0.01,0.07614 -0.005,0.146577 0.0245,0.188568 0.0303,0.04277 0.0871,0.0562 0.15496,0.04443 0.0393,-0.0068 0.0789,-0.0236 0.11936,-0.03666 0.0348,-0.01126 0.078,-0.04336 0.10591,-0.03587 0.0152,0.0041 0.0238,0.01216 0.0266,0.04246 0.004,0.04337 0.004,0.122823 0.0184,0.201615 0.0147,0.08032 0.0448,0.160583 0.0927,0.212468 0.0491,0.05309 0.11681,0.07641 0.18381,0.07057 0.0682,-0.0059 0.132,-0.04044 0.1971,-0.08416 0.0658,-0.04416 0.12678,-0.09444 0.17693,-0.124604 0.0505,-0.03041 0.09,-0.04039 0.12772,-0.0237 0.0382,0.0169 0.0738,0.06002 0.12992,0.02063 0.0565,-0.03972 0.13082,-0.165009 0.21116,-0.267092 0.0807,-0.102494 0.16829,-0.182629 0.29797,-0.277187 0.13199,-0.09624 0.30976,-0.208968 0.49865,-0.293046 0.19527,-0.08693 0.40515,-0.144474 0.59749,-0.182711 0.20006,-0.03976 0.38029,-0.05856 0.58804,-0.01265 0.2189,0.04838 0.47291,0.169058 0.58529,0.35893 0.1178,0.199063 0.0698,0.462886 0.11677,0.585147 0.0481,0.125217 0.19441,0.110088 0.40828,0.05874 0.22113,-0.05309 0.51451,-0.144683 0.78677,-0.298766 0.28061,-0.158832 0.52465,-0.37771 0.67508,-0.649101 0.14985,-0.270344 0.20055,-0.581346 0.28519,-0.818098 0.0837,-0.234077 0.20269,-0.40178 0.21295,-0.553665 0.0101,-0.149642 -0.10649,-0.274291 -0.12698,-0.378271 -0.0202,-0.102389 -1.1e-4,-0.127347 -0.0171,-0.239441 -0.0167,-0.110309 0.0488,-0.355093 -0.0968,-0.410095 -0.13206,-0.04991 -0.30054,0.0249 -0.55194,0.11486 0.03,-0.161688 0.0105,-0.292559 -0.096,-0.356119 -0.0956,-0.05708 -0.22782,-0.03697 -0.4231,0.0033 -0.0244,-0.14869 -0.17698,-0.221749 -0.35471,-0.212077 -0.14714,0.008 -0.25004,0.06953 -0.50164,0.207572 -0.0525,-0.130409 -0.19429,-0.144071 -0.34563,-0.131056 -0.13443,0.01156 -0.24391,0.03714 -0.45235,0.173227 -0.0464,-0.08126 -0.0602,-0.106362 -0.18271,-0.100964 -0.11878,0.0052 -0.38604,0.168277 -0.52585,0.202647 -0.13529,0.03305 -0.20096,-0.0025 -0.31215,0.02472 -0.01,0.0024 -0.0204,0.0057 -0.0311,0.0098 z m 0.24586,2.640515 c -0.11116,0.01962 -0.22529,0.04721 -0.33746,0.08386 -0.24786,0.081 -0.48855,0.206334 -0.66783,0.347987 -0.1754,0.138603 -0.29791,0.297482 -0.3828,0.490298 -0.0857,0.19469 -0.13566,0.429894 -0.13013,0.65435 0.006,0.232856 0.0708,0.458027 0.10864,0.582214 0.0389,0.127632 0.046,0.139069 0.12683,0.135702 0.0822,-0.0034 0.24324,-0.02228 0.33489,-0.05033 0.0931,-0.02851 0.11089,-0.06446 0.13045,-0.128287 0.0195,-0.06354 0.0395,-0.152284 0.0544,-0.24774 0.0146,-0.0945 0.024,-0.195167 0.0333,-0.294686 0.0751,0.01333 0.15149,0.02694 0.23994,0.02793 0.0902,9.65e-4 0.19288,-0.01104 0.34443,-0.03511 0.15596,-0.02476 0.3663,-0.06264 0.57245,-0.158582 0.21227,-0.09877 0.41394,-0.255478 0.54655,-0.422802 0.13328,-0.168158 0.18847,-0.338608 0.17311,-0.494014 -0.015,-0.152004 -0.0972,-0.286152 -0.22385,-0.379366 -0.12204,-0.08978 -0.28443,-0.140821 -0.51186,-0.145558 -0.12308,-0.0026 -0.26443,0.0085 -0.41103,0.03413 z" />
        <path
           d="m 71.547018,72.440197 v -5.32228 h 1.257532 l 1.90535,3.251799 V 67.13062 h 1.232125 v 5.309577 H 74.65909 l -1.892648,-3.200989 v 3.200989 z"
           id="path3221"
           style="font-weight:bold;font-size:48px;font-family:Dhurjati;-inkscape-font-specification:'Dhurjati Bold';text-align:center;text-anchor:middle;white-space:pre;fill:#ffffff;fill-opacity:1;stroke-width:3.63554" />
        <path
           d="m 80.616465,72.440197 h -3.64557 v -5.32228 h 3.64557 v 0.711331 h -2.426146 v 1.422662 h 1.90535 v 0.711331 h -1.90535 v 1.765625 h 2.426146 z"
           id="path3223"
           style="font-weight:bold;font-size:48px;font-family:Dhurjati;-inkscape-font-specification:'Dhurjati Bold';text-align:center;text-anchor:middle;white-space:pre;fill:#ffffff;fill-opacity:1;stroke-width:3.63554" />
        <path
           d="m 81.569131,67.117917 h 1.219424 V 71.3732 q 0,0.177833 0.139726,0.266749 0.139724,0.08892 0.38107,0.08892 h 0.558903 q 0.241343,0 0.368368,-0.08892 0.139724,-0.08892 0.139724,-0.266749 v -4.255283 h 1.232128 v 4.369604 q 0,0.228642 -0.127024,0.406475 -0.127023,0.177833 -0.330261,0.304856 -0.203237,0.114321 -0.482688,0.177833 -0.266749,0.06351 -0.558904,0.06351 h -1.041592 q -0.292152,0 -0.571605,-0.06351 -0.266749,-0.06351 -0.469985,-0.177833 -0.203237,-0.127023 -0.330262,-0.304856 -0.127022,-0.177833 -0.127022,-0.406475 z"
           id="path3225"
           style="font-weight:bold;font-size:48px;font-family:Dhurjati;-inkscape-font-specification:'Dhurjati Bold';text-align:center;text-anchor:middle;white-space:pre;fill:#ffffff;fill-opacity:1;stroke-width:3.63554" />
        <path
           d="m 89.038089,70.077562 1.752924,2.362635 h -1.282938 l -1.714814,-2.311826 v 2.311826 h -1.219424 v -5.32228 h 2.45155 q 0.292155,0 0.558903,0.06351 0.266749,0.06351 0.469987,0.190535 0.21594,0.114321 0.33026,0.292154 0.127023,0.177833 0.127023,0.406475 v 1.054294 q 0,0.228642 -0.127023,0.406474 -0.11432,0.177833 -0.317558,0.304857 -0.203238,0.11432 -0.482689,0.177832 -0.266748,0.06351 -0.546201,0.06351 z m 0.254047,-1.892648 q 0,-0.177833 -0.139724,-0.266749 -0.139727,-0.08892 -0.381072,-0.08892 h -0.978079 v 1.536983 h 0.978079 q 0.241345,0 0.381072,-0.08892 0.139724,-0.08892 0.139724,-0.266749 z"
           id="path3227"
           style="font-weight:bold;font-size:48px;font-family:Dhurjati;-inkscape-font-specification:'Dhurjati Bold';text-align:center;text-anchor:middle;white-space:pre;fill:#ffffff;fill-opacity:1;stroke-width:3.63554" />
        <path
           d="m 94.652513,67.117917 1.943461,5.32228 h -1.219427 l -0.444581,-1.257532 h -2.32453 l -0.431879,1.257532 h -1.219424 l 1.930756,-5.32228 z m -1.803731,3.353417 H 94.69062 L 93.776053,68.1087 Z"
           id="path3229"
           style="font-weight:bold;font-size:48px;font-family:Dhurjati;-inkscape-font-specification:'Dhurjati Bold';text-align:center;text-anchor:middle;white-space:pre;fill:#ffffff;fill-opacity:1;stroke-width:3.63554" />
        <path
           d="m 100.83854,72.440197 h -3.645566 v -5.32228 h 1.21943 v 4.610949 h 2.426136 z"
           id="path3231"
           style="font-weight:bold;font-size:48px;font-family:Dhurjati;-inkscape-font-specification:'Dhurjati Bold';text-align:center;text-anchor:middle;white-space:pre;fill:#ffffff;fill-opacity:1;stroke-width:3.63554" />
        <path
           d="m 104.49679,72.440197 v -5.32228 h 1.25753 l 1.90535,3.251799 V 67.13062 h 1.23213 v 5.309577 h -1.28294 l -1.89264,-3.200989 v 3.200989 z"
           id="path3233"
           style="font-weight:bold;font-size:48px;font-family:Dhurjati;-inkscape-font-specification:'Dhurjati Bold';text-align:center;text-anchor:middle;white-space:pre;fill:#ffffff;fill-opacity:1;stroke-width:3.63554" />
        <path
           d="m 113.56624,72.440197 h -3.64557 v -5.32228 h 3.64557 v 0.711331 h -2.42615 v 1.422662 h 1.90535 v 0.711331 h -1.90535 v 1.765625 h 2.42615 z"
           id="path3235"
           style="font-weight:bold;font-size:48px;font-family:Dhurjati;-inkscape-font-specification:'Dhurjati Bold';text-align:center;text-anchor:middle;white-space:pre;fill:#ffffff;fill-opacity:1;stroke-width:3.63554" />
        <path
           d="m 118.39312,67.829248 h -1.44807 v 4.610949 h -1.23213 v -4.610949 h -1.44806 v -0.711331 h 4.12826 z"
           id="path3237"
           style="font-weight:bold;font-size:48px;font-family:Dhurjati;-inkscape-font-specification:'Dhurjati Bold';text-align:center;text-anchor:middle;white-space:pre;fill:#ffffff;fill-opacity:1;stroke-width:3.63554" />
        <path
           d="m 123.2073,72.440197 -0.90187,-3.137478 -0.90186,3.137478 h -1.21942 l -1.52429,-5.32228 h 1.21943 l 0.91457,3.188287 0.90186,-3.188287 h 1.23213 l 0.88916,3.188287 0.91457,-3.188287 h 1.23213 l -1.52428,5.32228 z"
           id="path3239"
           style="font-weight:bold;font-size:48px;font-family:Dhurjati;-inkscape-font-specification:'Dhurjati Bold';text-align:center;text-anchor:middle;white-space:pre;fill:#ffffff;fill-opacity:1;stroke-width:3.63554" />
        <path
           d="m 126.39558,68.070593 q 0,-0.228642 0.12702,-0.406475 0.12703,-0.177833 0.33026,-0.292154 0.20324,-0.127023 0.46999,-0.190535 0.27945,-0.06351 0.57161,-0.06351 h 1.04159 q 0.29215,0 0.5589,0.06351 0.27945,0.06351 0.48269,0.190535 0.20323,0.114321 0.33026,0.292154 0.12702,0.177833 0.12702,0.406475 v 3.416928 q 0,0.228642 -0.12702,0.406475 -0.12703,0.177833 -0.33026,0.304856 -0.20324,0.114321 -0.48269,0.177833 -0.26675,0.06351 -0.5589,0.06351 h -1.04159 q -0.29216,0 -0.57161,-0.06351 -0.26675,-0.06351 -0.46999,-0.177833 -0.20323,-0.127023 -0.33026,-0.304856 -0.12702,-0.177833 -0.12702,-0.406475 z m 2.80722,0.114321 q 0,-0.177833 -0.13973,-0.266749 -0.12702,-0.08892 -0.36837,-0.08892 h -0.5589 q -0.24134,0 -0.38107,0.08892 -0.13973,0.08892 -0.13973,0.266749 V 71.3732 q 0,0.177833 0.13973,0.266749 0.13973,0.08892 0.38107,0.08892 h 0.5589 q 0.24135,0 0.36837,-0.08892 0.13973,-0.08892 0.13973,-0.266749 z"
           id="path3241"
           style="font-weight:bold;font-size:48px;font-family:Dhurjati;-inkscape-font-specification:'Dhurjati Bold';text-align:center;text-anchor:middle;white-space:pre;fill:#ffffff;fill-opacity:1;stroke-width:3.63554" />
        <path
           d="m 133.87724,70.077562 1.75292,2.362635 h -1.28294 l -1.71481,-2.311826 v 2.311826 h -1.21942 v -5.32228 h 2.45155 q 0.29215,0 0.5589,0.06351 0.26675,0.06351 0.46999,0.190535 0.21594,0.114321 0.33026,0.292154 0.12702,0.177833 0.12702,0.406475 v 1.054294 q 0,0.228642 -0.12702,0.406474 -0.11432,0.177833 -0.31756,0.304857 -0.20324,0.11432 -0.48269,0.177832 -0.26675,0.06351 -0.5462,0.06351 z m 0.25405,-1.892648 q 0,-0.177833 -0.13973,-0.266749 -0.13973,-0.08892 -0.38107,-0.08892 h -0.97808 v 1.536983 h 0.97808 q 0.24134,0 0.38107,-0.08892 0.13973,-0.08892 0.13973,-0.266749 z"
           id="path3243"
           style="font-weight:bold;font-size:48px;font-family:Dhurjati;-inkscape-font-specification:'Dhurjati Bold';text-align:center;text-anchor:middle;white-space:pre;fill:#ffffff;fill-opacity:1;stroke-width:3.63554" />
        <path
           d="m 136.10014,72.440197 v -5.32228 h 1.21942 v 2.629384 l 1.91806,-2.629384 h 1.27023 l -1.94346,2.680194 1.94346,2.642086 h -1.27023 l -1.91806,-2.603979 v 2.603979 z"
           id="path3245"
           style="font-weight:bold;font-size:48px;font-family:Dhurjati;-inkscape-font-specification:'Dhurjati Bold';text-align:center;text-anchor:middle;white-space:pre;fill:#ffffff;fill-opacity:1;stroke-width:3.63554" />
        <path
           id="path3247"
           style="fill:#ffffff;fill-opacity:1;stroke:none;stroke-width:0.0139897px;stroke-linecap:butt;stroke-linejoin:miter;stroke-opacity:1"
           d="m 145.53754,67.5048 c -0.0107,0.0041 -0.0216,0.009 -0.0326,0.01469 v 0 c -0.0893,0.04694 -0.18325,0.0996 -0.26906,0.176615 -0.0919,0.08256 -0.15209,0.212504 -0.2444,0.287508 -0.0503,0.0409 -0.08,0.04186 -0.14526,0.07022 -0.0643,0.02797 -0.12944,0.01952 -0.23631,0.09089 -0.10484,0.07001 -0.2702,0.264834 -0.37013,0.3461 -0.0984,0.08003 -0.1596,0.106781 -0.22263,0.154318 -0.0624,0.04702 -0.10117,0.07275 -0.15516,0.126371 -0.0536,0.05326 -0.10798,0.14148 -0.16171,0.191926 -0.0533,0.05008 -0.11049,0.06667 -0.16591,0.111422 -0.0599,0.04836 -0.12415,0.09785 -0.17719,0.166982 -0.061,0.07947 -0.0953,0.173354 -0.14356,0.260303 -0.0534,0.09616 -0.12011,0.192335 -0.16165,0.289066 -0.0309,0.07216 -0.0603,0.150586 -0.0612,0.208345 -9e-4,0.05847 0.0255,0.09123 0.03,0.124884 0.005,0.03394 -0.0136,0.06836 -0.0338,0.126671 -0.0205,0.05864 -0.0439,0.144085 -0.0531,0.219261 -0.01,0.07614 -0.005,0.146577 0.0245,0.188568 0.0303,0.04277 0.0871,0.0562 0.15496,0.04443 0.0393,-0.0068 0.0789,-0.0236 0.11936,-0.03666 0.0348,-0.01126 0.078,-0.04336 0.10591,-0.03587 0.0152,0.0041 0.0238,0.01216 0.0266,0.04246 0.004,0.04337 0.004,0.122823 0.0184,0.201615 0.0147,0.08032 0.0448,0.160583 0.0927,0.212468 0.0491,0.05309 0.11681,0.07641 0.18381,0.07057 0.0682,-0.0059 0.132,-0.04044 0.1971,-0.08416 0.0658,-0.04416 0.12678,-0.09444 0.17693,-0.124604 0.0505,-0.03041 0.09,-0.04039 0.12772,-0.0237 0.0382,0.0169 0.0738,0.06002 0.12992,0.02063 0.0565,-0.03972 0.13082,-0.165009 0.21116,-0.267092 0.0807,-0.102494 0.16829,-0.182629 0.29797,-0.277187 0.13199,-0.09624 0.30976,-0.208968 0.49865,-0.293046 0.19527,-0.08693 0.40515,-0.144474 0.59749,-0.182711 0.20006,-0.03976 0.38029,-0.05856 0.58804,-0.01265 0.2189,0.04838 0.47291,0.169058 0.58529,0.35893 0.1178,0.199063 0.0698,0.462886 0.11677,0.585147 0.0481,0.125217 0.19441,0.110088 0.40828,0.05874 0.22113,-0.05309 0.51451,-0.144683 0.78677,-0.298766 0.28061,-0.158832 0.52465,-0.37771 0.67508,-0.649101 0.14985,-0.270344 0.20055,-0.581346 0.28519,-0.818098 0.0837,-0.234077 0.20269,-0.40178 0.21295,-0.553665 0.0101,-0.149642 -0.10649,-0.274291 -0.12698,-0.378271 -0.0202,-0.102389 -1.1e-4,-0.127347 -0.0171,-0.239441 -0.0167,-0.110309 0.0488,-0.355093 -0.0968,-0.410095 -0.13206,-0.04991 -0.30054,0.0249 -0.55194,0.11486 0.03,-0.161688 0.0105,-0.292559 -0.096,-0.356119 -0.0956,-0.05708 -0.22782,-0.03697 -0.4231,0.0033 -0.0244,-0.14869 -0.17698,-0.221749 -0.35471,-0.212077 -0.14714,0.008 -0.25004,0.06953 -0.50164,0.207572 -0.0525,-0.130409 -0.19429,-0.144071 -0.34563,-0.131056 -0.13443,0.01156 -0.24391,0.03714 -0.45235,0.173227 -0.0464,-0.08126 -0.0602,-0.106362 -0.18271,-0.100964 -0.11878,0.0052 -0.38604,0.168277 -0.52585,0.202647 -0.13529,0.03305 -0.20096,-0.0025 -0.31215,0.02472 -0.01,0.0024 -0.0204,0.0057 -0.0311,0.0098 z m 0.24586,2.640515 c -0.11116,0.01962 -0.22529,0.04721 -0.33746,0.08386 -0.24786,0.081 -0.48855,0.206334 -0.66783,0.347987 -0.1754,0.138603 -0.29791,0.297482 -0.3828,0.490298 -0.0857,0.19469 -0.13566,0.429894 -0.13013,0.65435 0.006,0.232856 0.0708,0.458027 0.10864,0.582214 0.0389,0.127632 0.046,0.139069 0.12683,0.135702 0.0822,-0.0034 0.24324,-0.02228 0.33489,-0.05033 0.0931,-0.02851 0.11089,-0.06446 0.13045,-0.128287 0.0195,-0.06354 0.0395,-0.152284 0.0544,-0.24774 0.0146,-0.0945 0.024,-0.195167 0.0333,-0.294686 0.0751,0.01333 0.15149,0.02694 0.23994,0.02793 0.0902,9.65e-4 0.19288,-0.01104 0.34443,-0.03511 0.15596,-0.02476 0.3663,-0.06264 0.57245,-0.158582 0.21227,-0.09877 0.41394,-0.255478 0.54655,-0.422802 0.13328,-0.168158 0.18847,-0.338608 0.17311,-0.494014 -0.015,-0.152004 -0.0972,-0.286152 -0.22385,-0.379366 -0.12204,-0.08978 -0.28443,-0.140821 -0.51186,-0.145558 -0.12308,-0.0026 -0.26443,0.0085 -0.41103,0.03413 z" />
      </g>
    </g>
  </g>
</svg>
