<?xml version="1.0" encoding="UTF-8" standalone="no"?>
<!-- Created with Inkscape (http://www.inkscape.org/) -->

<svg
   width="131.414mm"
   height="39.01366mm"
   viewBox="0 0 131.41399 39.01366"
   version="1.1"
   id="svg10040"
   inkscape:version="1.2.1 (0f2f062aeb, 2022-09-21, custom)"
   sodipodi:docname="logo.svg"
   xmlns:inkscape="http://www.inkscape.org/namespaces/inkscape"
   xmlns:sodipodi="http://sodipodi.sourceforge.net/DTD/sodipodi-0.dtd"
   xmlns="http://www.w3.org/2000/svg"
   xmlns:svg="http://www.w3.org/2000/svg">
  <sodipodi:namedview
     id="namedview10042"
     pagecolor="#505050"
     bordercolor="#eeeeee"
     borderopacity="1"
     inkscape:showpageshadow="0"
     inkscape:pageopacity="0"
     inkscape:pagecheckerboard="0"
     inkscape:deskcolor="#505050"
     inkscape:document-units="mm"
     showgrid="false"
     inkscape:zoom="1.0832772"
     inkscape:cx="188.77901"
     inkscape:cy="113.08278"
     inkscape:window-width="1600"
     inkscape:window-height="836"
     inkscape:window-x="0"
     inkscape:window-y="0"
     inkscape:window-maximized="1"
     inkscape:current-layer="layer1" />
  <defs
     id="defs10037">
    <rect
       x="246.5843"
       y="317.12909"
       width="436.20691"
       height="65.823837"
       id="rect10698" />
    <inkscape:path-effect
       effect="perspective-envelope"
       up_left_point="-10.031939,72.949191"
       up_right_point="48.539576,46.549833"
       down_left_point="-23.734735,109.43962"
       down_right_point="42.816357,114.20262"
       id="path-effect8426"
       is_visible="true"
       lpeversion="1"
       deform_type="perspective"
       horizontal_mirror="false"
       vertical_mirror="false"
       overflow_perspective="false" />
  </defs>
  <g
     inkscape:label="Layer 1"
     inkscape:groupmode="layer"
     id="layer1"
     transform="translate(-44.844531,-40.177298)">
    <path
       id="rect14244"
       style="fill:#ffa500;stroke-width:3.214"
       d="M 44.844531,40.177298 H 176.25853 V 79.190959 H 44.844531 Z" />
    <g
       id="g360"
       transform="matrix(0.89217079,0,0,0.89217079,15.137362,-3.2885054)">
      <path
         id="path18146"
         style="fill:#fffcf7;fill-opacity:1;stroke:none;stroke-width:0.0652627px;stroke-linecap:butt;stroke-linejoin:miter;stroke-opacity:1"
         d="m 56.725746,59.974009 c -0.04975,0.01917 -0.100704,0.04215 -0.152087,0.06853 v 0 c -0.416525,0.218975 -0.854861,0.464624 -1.255147,0.823919 -0.429047,0.385137 -0.709492,0.991341 -1.140109,1.341243 -0.234816,0.190761 -0.373414,0.195249 -0.677677,0.327569 -0.299894,0.130468 -0.603879,0.09106 -1.102429,0.424003 -0.489055,0.326601 -1.260478,1.235466 -1.726659,1.614584 -0.459035,0.37331 -0.744515,0.498139 -1.038603,0.7199 -0.290952,0.219376 -0.471929,0.339398 -0.723768,0.589527 -0.250179,0.24847 -0.503786,0.660016 -0.754433,0.895346 -0.248824,0.233614 -0.515432,0.311046 -0.773966,0.519795 -0.279401,0.225605 -0.579199,0.456473 -0.826619,0.778978 -0.284421,0.370726 -0.444489,0.808713 -0.66973,1.214333 -0.249144,0.448626 -0.560303,0.897255 -0.754088,1.348514 -0.144564,0.336646 -0.281308,0.702492 -0.2854,0.97194 -0.0042,0.272771 0.119136,0.425585 0.139702,0.582592 0.02076,0.158356 -0.06331,0.318914 -0.157963,0.590931 -0.09521,0.273561 -0.204823,0.672163 -0.247584,1.022868 -0.04334,0.355204 -0.02396,0.683791 0.114483,0.879681 0.141008,0.199499 0.406131,0.262188 0.722874,0.207245 0.183027,-0.03187 0.368412,-0.110129 0.556808,-0.171009 0.162582,-0.05252 0.363492,-0.202289 0.494102,-0.167366 0.07104,0.01896 0.110788,0.05672 0.124064,0.198059 0.01908,0.2023 0.01863,0.572974 0.08618,0.940543 0.06881,0.374664 0.208826,0.749129 0.432416,0.991175 0.228841,0.247705 0.54491,0.356471 0.857486,0.329228 0.318125,-0.0277 0.615794,-0.18863 0.919477,-0.392603 0.306679,-0.206023 0.591458,-0.440571 0.825391,-0.581288 0.235813,-0.141879 0.420046,-0.188448 0.595808,-0.110584 0.178041,0.07884 0.34423,0.280009 0.606097,0.09622 0.263954,-0.185295 0.610279,-0.769783 0.985086,-1.246008 0.376242,-0.478139 0.785069,-0.851972 1.390041,-1.293094 0.615741,-0.448951 1.445057,-0.974848 2.326231,-1.367078 0.910949,-0.405519 1.890028,-0.673981 2.787368,-0.852359 0.933266,-0.185495 1.774023,-0.273204 2.743222,-0.05897 1.021199,0.225688 2.206149,0.788666 2.730408,1.674426 0.549546,0.928643 0.325643,2.1594 0.544739,2.729754 0.22434,0.584144 0.906942,0.513565 1.904667,0.274002 1.031571,-0.247632 2.400241,-0.674954 3.670322,-1.393766 1.309078,-0.740957 2.447554,-1.76204 3.149301,-3.028094 0.699042,-1.261175 0.935556,-2.712017 1.330448,-3.816483 0.390349,-1.091983 0.945526,-1.874326 0.993425,-2.58288 0.04722,-0.69809 -0.496796,-1.279584 -0.592386,-1.764663 -0.094,-0.477651 -4.96e-4,-0.59408 -0.07959,-1.117005 -0.07784,-0.514599 0.227542,-1.65653 -0.451386,-1.913123 -0.616079,-0.232831 -1.402056,0.116178 -2.574875,0.535831 0.139639,-0.754285 0.04901,-1.364809 -0.447785,-1.661318 -0.446124,-0.266263 -1.062778,-0.172465 -1.973776,0.01551 -0.114094,-0.693653 -0.825623,-1.034476 -1.654756,-0.989358 -0.686355,0.03734 -1.166434,0.324384 -2.340183,0.96834 -0.244836,-0.608365 -0.906346,-0.672099 -1.612348,-0.611384 -0.627151,0.05393 -1.137905,0.173261 -2.110252,0.808115 -0.216847,-0.379067 -0.280749,-0.496189 -0.85235,-0.471008 -0.554114,0.02441 -1.800891,0.785027 -2.45315,0.945365 -0.631148,0.15419 -0.937496,-0.01182 -1.456185,0.115307 -0.04662,0.01137 -0.09521,0.02654 -0.14511,0.04571 z m 1.146947,12.318175 c -0.518519,0.09154 -1.050996,0.220229 -1.574271,0.391207 -1.156251,0.377851 -2.279102,0.962565 -3.115429,1.623383 -0.818275,0.646591 -1.389798,1.387772 -1.785821,2.287272 -0.399932,0.908243 -0.632864,2.005483 -0.607091,3.052586 0.02677,1.086287 0.330432,2.136728 0.506848,2.716067 0.18118,0.595413 0.214586,0.648765 0.591679,0.633054 0.383791,-0.01593 1.134726,-0.103901 1.562313,-0.234787 0.434519,-0.132998 0.517263,-0.300717 0.608518,-0.598465 0.09078,-0.296403 0.18427,-0.710412 0.253967,-1.155721 0.06836,-0.440864 0.111854,-0.910465 0.155071,-1.37473 0.350026,0.06218 0.706672,0.125692 1.119265,0.130294 0.420681,0.0045 0.899871,-0.05153 1.606833,-0.16376 0.727521,-0.115494 1.708826,-0.292232 2.670537,-0.739791 0.990242,-0.460759 1.931022,-1.191826 2.549687,-1.9724 0.621749,-0.784466 0.879176,-1.579632 0.807525,-2.304609 -0.07005,-0.709107 -0.453293,-1.334918 -1.044282,-1.769767 -0.569294,-0.418854 -1.326864,-0.656937 -2.387838,-0.679037 -0.57418,-0.01199 -1.233599,0.03965 -1.917511,0.159204 z" />
      <g
         id="g342"
         transform="matrix(0.9271518,0,0,0.9271518,22.582254,-12.088719)">
        <path
           id="path10752"
           style="font-weight:bold;font-size:48px;font-family:Dhurjati;-inkscape-font-specification:'Dhurjati Bold';text-align:center;text-anchor:middle;white-space:pre;fill:#000000;fill-opacity:0.429492;stroke-width:1.89572"
           d="m 126.51464,97.393946 v 1.92902 h 0.88836 c 0.0706,0 0.13832,-0.007 0.20277,-0.0231 0.0645,-0.0152 0.12097,-0.0369 0.17007,-0.0645 0.0522,-0.0307 0.0923,-0.0677 0.11992,-0.11061 0.0307,-0.0429 0.0458,-0.0921 0.0458,-0.14734 v -1.23846 c 0,-0.0552 -0.0151,-0.10439 -0.0458,-0.14733 -0.0276,-0.0429 -0.0677,-0.0783 -0.11992,-0.10586 -0.0491,-0.0307 -0.10561,-0.0534 -0.17007,-0.0689 -0.0645,-0.0152 -0.13219,-0.0231 -0.20277,-0.0231 z m 1.69853,0 v 1.92872 h 1.32132 v -0.2576 h -0.87933 v -0.64011 h 0.69057 v -0.2576 h -0.69057 v -0.51582 h 0.87933 v -0.25759 z m 1.53313,0 0.67685,1.92872 h 0.44636 l 0.67686,-1.92872 h -0.442 l -0.46037,1.29827 -0.45571,-1.29827 z m 1.99817,0 v 1.92872 h 1.32101 v -0.2576 h -0.87932 v -0.64011 h 0.69056 v -0.2576 h -0.69056 v -0.51582 h 0.87932 v -0.25759 z m 1.64807,0 v 1.92872 h 1.32101 v -0.2576 h -0.87901 v -1.67112 z m 2.17728,0 c -0.0706,0 -0.13962,0.007 -0.20714,0.023 -0.0645,0.0153 -0.12095,0.0382 -0.17007,0.0689 -0.0491,0.0276 -0.0892,0.0629 -0.11992,0.10586 -0.0307,0.0429 -0.0461,0.0921 -0.0461,0.14733 v 1.23847 c 0,0.0553 0.0154,0.1044 0.0461,0.14733 0.0307,0.0429 0.0708,0.0799 0.11992,0.11061 0.0491,0.0276 0.10562,0.0491 0.17007,0.0645 0.0675,0.0152 0.13655,0.0227 0.20714,0.0227 h 0.37752 c 0.0706,0 0.13833,-0.007 0.20278,-0.0227 0.0675,-0.0154 0.12563,-0.037 0.17474,-0.0645 0.0491,-0.0307 0.0892,-0.0677 0.11992,-0.11061 0.0307,-0.0429 0.0458,-0.0921 0.0458,-0.14733 v -1.23847 c 0,-0.0551 -0.0151,-0.10439 -0.0458,-0.14733 -0.0307,-0.0429 -0.0708,-0.0783 -0.11992,-0.10586 -0.0491,-0.0307 -0.10722,-0.0534 -0.17474,-0.0689 -0.0645,-0.0154 -0.13219,-0.023 -0.20278,-0.023 z m 1.27522,0 v 1.92872 l 0.442,3e-4 v -0.8519 h 0.44667 c 0.0706,0 0.13801,-0.007 0.20246,-0.0231 0.0644,-0.0154 0.12128,-0.0369 0.17039,-0.0645 0.0522,-0.0307 0.092,-0.0673 0.11961,-0.11025 0.0307,-0.0429 0.0461,-0.0921 0.0461,-0.14732 v -0.38686 c 0,-0.0553 -0.0154,-0.1044 -0.0461,-0.14734 -0.0276,-0.0429 -0.0674,-0.0783 -0.11961,-0.10586 -0.0491,-0.0307 -0.10594,-0.0534 -0.17039,-0.0689 -0.0644,-0.0152 -0.13187,-0.0231 -0.20246,-0.0231 z m 1.75865,0 v 1.92872 h 1.32131 v -0.2576 h -0.87932 v -0.64011 h 0.69057 v -0.2576 h -0.69057 v -0.51582 h 0.87932 v -0.25759 z m 1.64806,0 v 1.92872 h 0.442 v -0.8376 l 0.62173,0.8376 h 0.46473 l -0.63512,-0.85628 c 0.0675,0 0.13334,-0.007 0.1978,-0.0227 0.0675,-0.0154 0.12594,-0.0369 0.17505,-0.0645 0.0491,-0.0307 0.0873,-0.0677 0.11493,-0.11062 0.0307,-0.0429 0.0461,-0.0921 0.0461,-0.14734 v -0.38217 c 0,-0.0553 -0.0154,-0.1044 -0.0461,-0.14734 -0.0276,-0.0429 -0.0674,-0.0784 -0.1196,-0.10586 -0.0491,-0.0307 -0.10593,-0.0534 -0.17038,-0.0689 -0.0645,-0.0154 -0.13188,-0.0231 -0.20247,-0.0231 z m 3.6305,-0.84636 v 2.77493 h 0.63592 v -1.41704 l 0.47683,0.98009 h 0.66909 l 0.46339,-0.97382 v 1.41077 h 0.64265 v -2.77493 h -0.64892 l -0.79502,1.64918 -0.7883,-1.64918 z m 3.41131,0 v 2.27838 c 0,0.0794 0.0217,0.15016 0.0659,0.21197 0.0442,0.0618 0.10189,0.11489 0.17254,0.15911 0.0707,0.0396 0.15196,0.0707 0.24469,0.0928 0.0971,0.0221 0.19691,0.0327 0.29847,0.0327 h 0.54271 c 0.10157,0 0.19902,-0.011 0.29175,-0.0327 0.0971,-0.0221 0.18076,-0.0532 0.25141,-0.0928 0.0707,-0.0442 0.12838,-0.0973 0.17254,-0.15911 0.0442,-0.0618 0.0663,-0.13248 0.0663,-0.21197 v -2.27838 h -0.64265 v 2.21879 c 0,0.0618 -0.0245,0.10793 -0.073,0.13892 -0.0442,0.031 -0.10791,0.0467 -0.19181,0.0467 h -0.29174 c -0.0839,0 -0.14997,-0.0157 -0.19853,-0.0467 -0.0486,-0.0308 -0.073,-0.0771 -0.073,-0.13892 v -2.21879 z m 2.60958,0 v 2.77493 h 0.63593 v -1.66891 l 0.98683,1.66891 h 0.66908 v -2.76822 h -0.64264 v 1.68862 l -0.99355,-1.69533 z m 2.65574,0 1.02044,1.38432 v 1.39061 h 0.63548 v -1.39061 l 1.02671,-1.38432 h -0.63593 l -0.70852,0.95365 -0.70225,-0.95365 z m 3.78866,0 -1.00654,2.77493 h 0.63592 l 0.22497,-0.65565 h 1.21225 l 0.23169,0.65565 h 0.63593 l -1.01327,-2.77493 z m -29.3909,1.10395 h 0.35447 c 0.0583,0 0.10423,0.011 0.13799,0.0323 0.0338,0.0215 0.0508,0.0535 0.0508,0.0965 v 1.15562 c 0,0.0429 -0.017,0.0751 -0.0508,0.0965 -0.0338,0.0216 -0.0797,0.0324 -0.13799,0.0324 h -0.35447 z m 8.70071,0 h 0.20278 c 0.0583,0 0.10262,0.011 0.13331,0.0323 0.0338,0.0215 0.0508,0.0535 0.0508,0.0965 v 1.15562 c 0,0.0429 -0.017,0.0751 -0.0508,0.0965 -0.0307,0.0216 -0.075,0.0324 -0.13331,0.0324 h -0.20278 c -0.0583,0 -0.10424,-0.011 -0.13799,-0.0324 -0.0338,-0.0215 -0.0508,-0.0535 -0.0508,-0.0965 v -1.15562 c 0,-0.0429 0.017,-0.0751 0.0508,-0.0965 0.0338,-0.0216 0.0797,-0.0323 0.13799,-0.0323 z m 1.62969,0 h 0.35447 c 0.0583,0 0.10454,0.011 0.1383,0.0323 0.0338,0.0215 0.0505,0.0535 0.0505,0.0965 v 0.304 c 0,0.0429 -0.0167,0.0751 -0.0505,0.0965 -0.0338,0.0216 -0.08,0.0321 -0.1383,0.0321 h -0.35447 z m 3.40671,0 h 0.35447 c 0.0583,0 0.10454,0.011 0.1383,0.0323 0.0338,0.0215 0.0505,0.0535 0.0505,0.0965 v 0.29934 c 0,0.0429 -0.0167,0.0751 -0.0505,0.0965 -0.0338,0.0216 -0.08,0.0323 -0.1383,0.0323 h -0.35447 z m 16.11763,-0.58725 0.47683,1.23197 h -0.96039 z"
           sodipodi:nodetypes="ccscccssccscccccccccccccccccccccccccccccccccccccccccccsccssssccssccssssccssccccscccssccscccccccccccccccccccccccccssccscccccccccccccccccssccssccssccscsscscccccccccccccccccccccccccccccccccsssscsccsscsscsscsscscsssssscccsssssscccccc" />
        <g
           aria-label="WEB-BRAIN-UI"
           transform="matrix(0.39383153,0,0,0.39383153,-31.85731,-94.277658)"
           id="g18172"
           style="font-size:48px;-inkscape-font-specification:sans-serif;white-space:pre;shape-inside:url(#rect8482);fill:#fffefc;fill-opacity:1;stroke-width:15.7909">
          <path
             d="m 261.6073,473.87891 -3.91724,-13.62759 -3.91724,13.62759 h -5.29655 l -6.62069,-23.11725 h 5.29655 l 3.97242,13.84828 3.91724,-13.84828 h 5.35172 l 3.86207,13.84828 3.97241,-13.84828 h 5.35173 l -6.62069,23.11725 z"
             style="font-weight:bold;font-family:Dhurjati;-inkscape-font-specification:'Dhurjati Bold';text-align:center;text-anchor:middle;fill:#fffefc;fill-opacity:1"
             id="path18148" />
          <path
             d="m 291.29003,473.87891 h -15.83448 v -23.11725 h 15.83448 v 3.08966 H 280.7521 v 6.17931 h 8.27586 v 3.08966 h -8.27586 v 7.66896 h 10.53793 z"
             style="font-weight:bold;font-family:Dhurjati;-inkscape-font-specification:'Dhurjati Bold';text-align:center;text-anchor:middle;fill:#fffefc;fill-opacity:1"
             id="path18150" />
          <path
             d="m 311.8693,469.74098 q 0,0.9931 -0.55173,1.76551 -0.49655,0.77242 -1.43448,1.32414 -0.88276,0.49655 -2.04138,0.77241 -1.15862,0.27587 -2.42758,0.27587 h -10.2069 v -23.11725 h 9.54483 q 1.26896,0 2.42758,0.27587 1.2138,0.27586 2.09655,0.82758 0.88276,0.49655 1.43449,1.26897 0.55172,0.77241 0.55172,1.76552 v 3.86206 q 0,0.33104 -0.11034,0.71725 -0.11035,0.33103 -0.33104,0.66207 -0.16552,0.33103 -0.49655,0.66206 -0.27586,0.27587 -0.71724,0.49656 0.38621,0.22069 0.77241,0.49655 0.44138,0.27586 0.77242,0.66207 0.33103,0.33103 0.49655,0.77241 0.22069,0.38621 0.22069,0.93793 z m -7.50345,1.04827 q 0.9931,0 1.6,-0.38621 0.6069,-0.3862 0.6069,-1.15862 v -4.57931 q 0,-0.71724 -0.55173,-1.10345 -0.55172,-0.3862 -1.54483,-0.44137 h -3.97241 v 7.66896 z m 1.54483,-12.30345 v -3.08965 q 0,-0.77242 -0.6069,-1.15862 -0.55172,-0.38621 -1.6,-0.38621 h -3.2 v 6.17931 h 3.2 q 1.10345,0 1.65517,-0.44138 0.55173,-0.44138 0.55173,-1.10345 z"
             style="font-weight:bold;font-family:Dhurjati;-inkscape-font-specification:'Dhurjati Bold';text-align:center;text-anchor:middle;fill:#fffefc;fill-opacity:1"
             id="path18152" />
          <path
             d="m 316.06235,464.55477 v -2.42759 h 15.06207 v 2.42759 z"
             style="font-weight:bold;font-family:Dhurjati;-inkscape-font-specification:'Dhurjati Bold';text-align:center;text-anchor:middle;fill:#fffefc;fill-opacity:1"
             id="path18154" />
          <path
             d="m 352.03476,469.74098 q 0,0.9931 -0.55172,1.76551 -0.49655,0.77242 -1.43448,1.32414 -0.88276,0.49655 -2.04138,0.77241 -1.15862,0.27587 -2.42759,0.27587 h -10.2069 v -23.11725 h 9.54483 q 1.26897,0 2.42759,0.27587 1.21379,0.27586 2.09655,0.82758 0.88276,0.49655 1.43448,1.26897 0.55173,0.77241 0.55173,1.76552 v 3.86206 q 0,0.33104 -0.11035,0.71725 -0.11034,0.33103 -0.33103,0.66207 -0.16552,0.33103 -0.49655,0.66206 -0.27587,0.27587 -0.71725,0.49656 0.38621,0.22069 0.77242,0.49655 0.44138,0.27586 0.77241,0.66207 0.33104,0.33103 0.49655,0.77241 0.22069,0.38621 0.22069,0.93793 z m -7.50344,1.04827 q 0.9931,0 1.6,-0.38621 0.60689,-0.3862 0.60689,-1.15862 v -4.57931 q 0,-0.71724 -0.55172,-1.10345 -0.55173,-0.3862 -1.54483,-0.44137 h -3.97241 v 7.66896 z m 1.54482,-12.30345 v -3.08965 q 0,-0.77242 -0.60689,-1.15862 -0.55173,-0.38621 -1.6,-0.38621 h -3.2 v 6.17931 h 3.2 q 1.10344,0 1.65517,-0.44138 0.55172,-0.44138 0.55172,-1.10345 z"
             style="font-weight:bold;font-family:Dhurjati;-inkscape-font-specification:'Dhurjati Bold';text-align:center;text-anchor:middle;fill:#fffefc;fill-opacity:1"
             id="path18156" />
          <path
             d="m 366.2692,463.61684 7.61379,10.26207 h -5.57241 l -7.44828,-10.04138 v 10.04138 h -5.29655 v -23.11725 h 10.64828 q 1.26896,0 2.42758,0.27587 1.15862,0.27586 2.04138,0.82758 0.93793,0.49655 1.43448,1.26897 0.55173,0.77241 0.55173,1.76552 v 4.57931 q 0,0.9931 -0.55173,1.76551 -0.49655,0.77242 -1.37931,1.32414 -0.88276,0.49655 -2.09655,0.77242 -1.15862,0.27586 -2.37241,0.27586 z m 1.10345,-8.22069 q 0,-0.77242 -0.6069,-1.15862 -0.6069,-0.38621 -1.65517,-0.38621 h -4.24828 v 6.67586 h 4.24828 q 1.04827,0 1.65517,-0.3862 0.6069,-0.38621 0.6069,-1.15863 z"
             style="font-weight:bold;font-family:Dhurjati;-inkscape-font-specification:'Dhurjati Bold';text-align:center;text-anchor:middle;fill:#fffefc;fill-opacity:1"
             id="path18158" />
          <path
             d="m 390.65537,450.76166 8.44137,23.11725 h -5.29655 l -1.93103,-5.46207 h -10.09655 l -1.87587,5.46207 h -5.29655 l 8.38621,-23.11725 z m -7.83449,14.56552 h 8 l -3.97241,-10.26207 z"
             style="font-weight:bold;font-family:Dhurjati;-inkscape-font-specification:'Dhurjati Bold';text-align:center;text-anchor:middle;fill:#fffefc;fill-opacity:1"
             id="path18160" />
          <path
             d="m 402.13121,473.87891 v -23.11725 h 5.29655 v 23.11725 z"
             style="font-weight:bold;font-family:Dhurjati;-inkscape-font-specification:'Dhurjati Bold';text-align:center;text-anchor:middle;fill:#fffefc;fill-opacity:1"
             id="path18162" />
          <path
             d="m 411.56563,473.87891 v -23.11725 h 5.46207 l 8.27586,14.12414 v -14.06896 h 5.35172 v 23.06207 h -5.57241 l -8.22069,-13.90345 v 13.90345 z"
             style="font-weight:bold;font-family:Dhurjati;-inkscape-font-specification:'Dhurjati Bold';text-align:center;text-anchor:middle;fill:#fffefc;fill-opacity:1"
             id="path18164" />
          <path
             d="m 435.78623,464.55477 v -2.42759 h 15.06207 v 2.42759 z"
             style="font-weight:bold;font-family:Dhurjati;-inkscape-font-specification:'Dhurjati Bold';text-align:center;text-anchor:middle;fill:#fffefc;fill-opacity:1"
             id="path18166" />
          <path
             d="m 455.31726,450.76166 h 5.29655 v 18.48276 q 0,0.77242 0.6069,1.15862 0.6069,0.38621 1.65517,0.38621 h 2.42759 q 1.04827,0 1.6,-0.38621 0.6069,-0.3862 0.6069,-1.15862 v -18.48276 h 5.35172 v 18.97932 q 0,0.9931 -0.55172,1.76551 -0.55173,0.77242 -1.43449,1.32414 -0.88276,0.49655 -2.09655,0.77241 -1.15862,0.27587 -2.42759,0.27587 h -4.52413 q -1.26897,0 -2.48276,-0.27587 -1.15862,-0.27586 -2.04138,-0.77241 -0.88276,-0.55172 -1.43448,-1.32414 -0.55173,-0.77241 -0.55173,-1.76551 z"
             style="font-weight:bold;font-family:Dhurjati;-inkscape-font-specification:'Dhurjati Bold';text-align:center;text-anchor:middle;fill:#fffefc;fill-opacity:1"
             id="path18168" />
          <path
             d="m 477.49651,473.87891 v -23.11725 h 5.29655 v 23.11725 z"
             style="font-weight:bold;font-family:Dhurjati;-inkscape-font-specification:'Dhurjati Bold';text-align:center;text-anchor:middle;fill:#fffefc;fill-opacity:1"
             id="path18170" />
        </g>
      </g>
    </g>
  </g>
</svg>
