<?xml version="1.0" encoding="UTF-8" standalone="no"?>
<!-- Created with Inkscape (http://www.inkscape.org/) -->

<svg
   width="131.414mm"
   height="131.414mm"
   viewBox="0 0 131.41399 131.414"
   version="1.1"
   id="svg10040"
   inkscape:version="1.2.1 (0f2f062aeb, 2022-09-21, custom)"
   sodipodi:docname="logo2.svg"
   xmlns:inkscape="http://www.inkscape.org/namespaces/inkscape"
   xmlns:sodipodi="http://sodipodi.sourceforge.net/DTD/sodipodi-0.dtd"
   xmlns="http://www.w3.org/2000/svg"
   xmlns:svg="http://www.w3.org/2000/svg">
  <sodipodi:namedview
     id="namedview10042"
     pagecolor="#505050"
     bordercolor="#eeeeee"
     borderopacity="1"
     inkscape:showpageshadow="0"
     inkscape:pageopacity="0"
     inkscape:pagecheckerboard="0"
     inkscape:deskcolor="#505050"
     inkscape:document-units="mm"
     showgrid="false"
     inkscape:zoom="0.76599267"
     inkscape:cx="156.00672"
     inkscape:cy="243.47492"
     inkscape:window-width="1600"
     inkscape:window-height="836"
     inkscape:window-x="0"
     inkscape:window-y="0"
     inkscape:window-maximized="1"
     inkscape:current-layer="layer1" />
  <defs
     id="defs10037">
    <inkscape:path-effect
       effect="perspective-envelope"
       up_left_point="-10.031939,72.949191"
       up_right_point="48.539576,46.549833"
       down_left_point="-23.734735,109.43962"
       down_right_point="42.816357,114.20262"
       id="path-effect18176"
       is_visible="true"
       lpeversion="1"
       deform_type="perspective"
       horizontal_mirror="false"
       vertical_mirror="false"
       overflow_perspective="false" />
    <rect
       x="246.5843"
       y="317.12909"
       width="436.20691"
       height="65.823837"
       id="rect10698" />
    <inkscape:path-effect
       effect="perspective-envelope"
       up_left_point="-10.031939,72.949191"
       up_right_point="48.539576,46.549833"
       down_left_point="-23.734735,109.43962"
       down_right_point="42.816357,114.20262"
       id="path-effect8426"
       is_visible="true"
       lpeversion="1"
       deform_type="perspective"
       horizontal_mirror="false"
       vertical_mirror="false"
       overflow_perspective="false" />
    <filter
       inkscape:collect="always"
       style="color-interpolation-filters:sRGB"
       id="filter18178"
       x="-0.062722729"
       y="-0.65372206"
       width="1.1254455"
       height="2.3074441">
      <feGaussianBlur
         inkscape:collect="always"
         stdDeviation="6.2967732"
         id="feGaussianBlur18180" />
    </filter>
    <filter
       inkscape:collect="always"
       style="color-interpolation-filters:sRGB"
       id="filter18182"
       x="-0.095591042"
       y="-0.11901904"
       width="1.1911821"
       height="1.2380381">
      <feGaussianBlur
         inkscape:collect="always"
         stdDeviation="2.4798678"
         id="feGaussianBlur18184" />
    </filter>
  </defs>
  <g
     inkscape:label="Layer 1"
     inkscape:groupmode="layer"
     id="layer1"
     transform="translate(54.960499,-46.90387)">
    <path
       id="rect14244"
       style="fill:#ffa500;stroke-width:5.89872"
       d="M -54.960499,46.90387 H 76.453503 v 131.414 H -54.960499 Z" />
    <g
       id="g21886"
       transform="translate(-1.8071576e-4,17.907169)">
      <path
         id="path2056"
         style="fill:#121212;fill-opacity:0.346167;stroke:none;stroke-width:0.131442px;stroke-linecap:butt;stroke-linejoin:miter;stroke-opacity:1;filter:url(#filter18182)"
         d="m 8.3889914,64.651409 c -0.1002033,0.03863 -0.2028329,0.08489 -0.3063089,0.138043 v 0 c -0.8389025,0.441023 -1.7217349,0.935772 -2.5279238,1.659409 -0.8641193,0.775683 -1.4289493,1.996605 -2.2962284,2.701321 -0.4729265,0.384202 -0.7520667,0.393239 -1.3648676,0.659736 -0.6040074,0.26277 -1.21624451,0.183377 -2.22034447,0.853963 -0.98497793,0.657788 -2.53865633,2.488282 -3.47756483,3.251844 -0.9245165,0.751858 -1.499484,1.003273 -2.0917919,1.449907 -0.5859893,0.441834 -0.9504866,0.683563 -1.4576991,1.187333 -0.5038715,0.500429 -1.0146504,1.329302 -1.5194624,1.803266 -0.5011409,0.470509 -1.0381026,0.62646 -1.558801,1.04689 -0.562727,0.454381 -1.166532,0.919358 -1.664847,1.568896 -0.572835,0.746659 -0.895221,1.628784 -1.348865,2.44572 -0.501788,0.903555 -1.128476,1.807111 -1.518765,2.715966 -0.291161,0.678022 -0.566568,1.414848 -0.574809,1.95753 -0.0083,0.549371 0.239945,0.857147 0.281364,1.173364 0.0418,0.318939 -0.12751,0.642308 -0.318142,1.190161 -0.191759,0.550963 -0.412524,1.353765 -0.498645,2.060102 -0.08729,0.715397 -0.04824,1.377185 0.230573,1.771714 0.283995,0.4018 0.817965,0.528061 1.455898,0.417402 0.368626,-0.06421 0.741998,-0.221803 1.121436,-0.344419 0.327448,-0.105795 0.73209,-0.407419 0.995142,-0.337083 0.143086,0.03818 0.223133,0.11424 0.249871,0.3989 0.03843,0.407441 0.03754,1.153994 0.173575,1.894292 0.138597,0.754588 0.420585,1.508779 0.870904,1.996268 0.460895,0.498898 1.0974697,0.71795 1.7270138,0.663084 0.6407174,-0.0558 1.2402351,-0.379914 1.851865,-0.790725 0.6176639,-0.414938 1.1912231,-0.887326 1.6623748,-1.17074 0.4749385,-0.285743 0.8459924,-0.379537 1.1999848,-0.222711 0.3585803,0.158782 0.6932929,0.563949 1.2207042,0.193774 0.5316155,-0.37319 1.2291272,-1.550373 1.9840063,-2.509512 0.75776714,-0.962992 1.58115846,-1.715908 2.7996017,-2.604348 1.2401333,-0.904208 2.9104105,-1.963386 4.6851318,-2.753354 1.8346903,-0.816731 3.806599,-1.357426 5.6138756,-1.716689 1.879644,-0.373595 3.572964,-0.550246 5.524972,-0.118767 2.056739,0.454545 4.44328,1.588407 5.499164,3.372369 1.106804,1.870325 0.655862,4.349125 1.09713,5.497845 0.451831,1.176483 1.826613,1.034342 3.836076,0.551851 2.07763,-0.498743 4.834196,-1.35939 7.392188,-2.807108 2.636542,-1.492318 4.929485,-3.548826 6.34283,-6.098711 1.407899,-2.540061 1.88425,-5.462124 2.679581,-7.686563 0.786178,-2.199301 1.904329,-3.774974 2.000803,-5.202033 0.09505,-1.405984 -1.000574,-2.577138 -1.193094,-3.554108 -0.189325,-0.96201 -0.0011,-1.196502 -0.160274,-2.249697 -0.156767,-1.036428 0.458274,-3.336324 -0.909111,-3.853116 -1.240813,-0.468929 -2.823797,0.233988 -5.185915,1.079187 0.281239,-1.519159 0.09866,-2.748784 -0.901853,-3.345965 -0.89851,-0.536266 -2.140481,-0.347354 -3.975273,0.03124 -0.229787,-1.397049 -1.662839,-2.083481 -3.332746,-1.992612 -1.382353,0.0752 -2.349253,0.653323 -4.713233,1.950279 -0.493114,-1.225272 -1.825417,-1.353636 -3.247337,-1.231355 -1.263117,0.108623 -2.291798,0.348957 -4.250141,1.627579 -0.436745,-0.763458 -0.565447,-0.999345 -1.71667,-0.948632 -1.116017,0.04916 -3.627074,1.581081 -4.940758,1.904008 -1.271155,0.310546 -1.8881578,-0.02382 -2.932817,0.232235 -0.093857,0.02289 -0.1917595,0.05345 -0.2922634,0.09206 z m 2.3100036,24.80934 c -1.044325,0.18437 -2.1167549,0.443552 -3.1706529,0.787909 -2.3287426,0.761009 -4.5902169,1.938648 -6.2746141,3.269562 -1.64803834,1.302264 -2.7991104,2.795042 -3.5967183,4.606663 -0.8054809,1.829248 -1.2746153,4.039137 -1.2227072,6.148047 0.053911,2.18783 0.6655049,4.30347 1.0208114,5.47027 0.3649067,1.1992 0.4321889,1.30665 1.1916716,1.27501 0.77296879,-0.032 2.28538078,-0.20927 3.1465687,-0.47287 0.8751349,-0.26786 1.0417854,-0.60566 1.2255779,-1.20534 0.1828151,-0.59697 0.371127,-1.43081 0.5115011,-2.32766 0.1376699,-0.88793 0.2252749,-1.83373 0.3123128,-2.76878 0.7049785,0.12525 1.4232732,0.25315 2.2542575,0.26242 0.8472643,0.009 1.8123767,-0.10379 3.2362225,-0.32982 1.465265,-0.23261 3.441656,-0.58857 5.37858,-1.48997 1.994393,-0.92799 3.889164,-2.40039 5.135185,-3.972507 1.252225,-1.579947 1.7707,-3.181444 1.626385,-4.641578 -0.141074,-1.428173 -0.912949,-2.688585 -2.103228,-3.564388 -1.146573,-0.843591 -2.67236,-1.3231 -4.809207,-1.367612 -1.156416,-0.02414 -2.484519,0.07987 -3.861946,0.320644 z" />
      <g
         aria-label="WEB-BRAIN-UI"
         transform="matrix(0.39383153,0,0,0.39383153,-131.94806,-59.258084)"
         id="text8480"
         style="font-size:48px;-inkscape-font-specification:sans-serif;white-space:pre;shape-inside:url(#rect8482);fill:#121212;fill-opacity:0.346167;stroke-width:15.7909;filter:url(#filter18178)">
        <path
           d="m 261.6073,473.87891 -3.91724,-13.62759 -3.91724,13.62759 h -5.29655 l -6.62069,-23.11725 h 5.29655 l 3.97242,13.84828 3.91724,-13.84828 h 5.35172 l 3.86207,13.84828 3.97241,-13.84828 h 5.35173 l -6.62069,23.11725 z"
           style="font-weight:bold;font-family:Dhurjati;-inkscape-font-specification:'Dhurjati Bold';text-align:center;text-anchor:middle;fill:#121212;fill-opacity:0.346167"
           id="path8536" />
        <path
           d="m 291.29003,473.87891 h -15.83448 v -23.11725 h 15.83448 v 3.08966 H 280.7521 v 6.17931 h 8.27586 v 3.08966 h -8.27586 v 7.66896 h 10.53793 z"
           style="font-weight:bold;font-family:Dhurjati;-inkscape-font-specification:'Dhurjati Bold';text-align:center;text-anchor:middle;fill:#121212;fill-opacity:0.346167"
           id="path8538" />
        <path
           d="m 311.8693,469.74098 q 0,0.9931 -0.55173,1.76551 -0.49655,0.77242 -1.43448,1.32414 -0.88276,0.49655 -2.04138,0.77241 -1.15862,0.27587 -2.42758,0.27587 h -10.2069 v -23.11725 h 9.54483 q 1.26896,0 2.42758,0.27587 1.2138,0.27586 2.09655,0.82758 0.88276,0.49655 1.43449,1.26897 0.55172,0.77241 0.55172,1.76552 v 3.86206 q 0,0.33104 -0.11034,0.71725 -0.11035,0.33103 -0.33104,0.66207 -0.16552,0.33103 -0.49655,0.66206 -0.27586,0.27587 -0.71724,0.49656 0.38621,0.22069 0.77241,0.49655 0.44138,0.27586 0.77242,0.66207 0.33103,0.33103 0.49655,0.77241 0.22069,0.38621 0.22069,0.93793 z m -7.50345,1.04827 q 0.9931,0 1.6,-0.38621 0.6069,-0.3862 0.6069,-1.15862 v -4.57931 q 0,-0.71724 -0.55173,-1.10345 -0.55172,-0.3862 -1.54483,-0.44137 h -3.97241 v 7.66896 z m 1.54483,-12.30345 v -3.08965 q 0,-0.77242 -0.6069,-1.15862 -0.55172,-0.38621 -1.6,-0.38621 h -3.2 v 6.17931 h 3.2 q 1.10345,0 1.65517,-0.44138 0.55173,-0.44138 0.55173,-1.10345 z"
           style="font-weight:bold;font-family:Dhurjati;-inkscape-font-specification:'Dhurjati Bold';text-align:center;text-anchor:middle;fill:#121212;fill-opacity:0.346167"
           id="path8540" />
        <path
           d="m 316.06235,464.55477 v -2.42759 h 15.06207 v 2.42759 z"
           style="font-weight:bold;font-family:Dhurjati;-inkscape-font-specification:'Dhurjati Bold';text-align:center;text-anchor:middle;fill:#121212;fill-opacity:0.346167"
           id="path8542" />
        <path
           d="m 352.03476,469.74098 q 0,0.9931 -0.55172,1.76551 -0.49655,0.77242 -1.43448,1.32414 -0.88276,0.49655 -2.04138,0.77241 -1.15862,0.27587 -2.42759,0.27587 h -10.2069 v -23.11725 h 9.54483 q 1.26897,0 2.42759,0.27587 1.21379,0.27586 2.09655,0.82758 0.88276,0.49655 1.43448,1.26897 0.55173,0.77241 0.55173,1.76552 v 3.86206 q 0,0.33104 -0.11035,0.71725 -0.11034,0.33103 -0.33103,0.66207 -0.16552,0.33103 -0.49655,0.66206 -0.27587,0.27587 -0.71725,0.49656 0.38621,0.22069 0.77242,0.49655 0.44138,0.27586 0.77241,0.66207 0.33104,0.33103 0.49655,0.77241 0.22069,0.38621 0.22069,0.93793 z m -7.50344,1.04827 q 0.9931,0 1.6,-0.38621 0.60689,-0.3862 0.60689,-1.15862 v -4.57931 q 0,-0.71724 -0.55172,-1.10345 -0.55173,-0.3862 -1.54483,-0.44137 h -3.97241 v 7.66896 z m 1.54482,-12.30345 v -3.08965 q 0,-0.77242 -0.60689,-1.15862 -0.55173,-0.38621 -1.6,-0.38621 h -3.2 v 6.17931 h 3.2 q 1.10344,0 1.65517,-0.44138 0.55172,-0.44138 0.55172,-1.10345 z"
           style="font-weight:bold;font-family:Dhurjati;-inkscape-font-specification:'Dhurjati Bold';text-align:center;text-anchor:middle;fill:#121212;fill-opacity:0.346167"
           id="path8544" />
        <path
           d="m 366.2692,463.61684 7.61379,10.26207 h -5.57241 l -7.44828,-10.04138 v 10.04138 h -5.29655 v -23.11725 h 10.64828 q 1.26896,0 2.42758,0.27587 1.15862,0.27586 2.04138,0.82758 0.93793,0.49655 1.43448,1.26897 0.55173,0.77241 0.55173,1.76552 v 4.57931 q 0,0.9931 -0.55173,1.76551 -0.49655,0.77242 -1.37931,1.32414 -0.88276,0.49655 -2.09655,0.77242 -1.15862,0.27586 -2.37241,0.27586 z m 1.10345,-8.22069 q 0,-0.77242 -0.6069,-1.15862 -0.6069,-0.38621 -1.65517,-0.38621 h -4.24828 v 6.67586 h 4.24828 q 1.04827,0 1.65517,-0.3862 0.6069,-0.38621 0.6069,-1.15863 z"
           style="font-weight:bold;font-family:Dhurjati;-inkscape-font-specification:'Dhurjati Bold';text-align:center;text-anchor:middle;fill:#121212;fill-opacity:0.346167"
           id="path8546" />
        <path
           d="m 390.65537,450.76166 8.44137,23.11725 h -5.29655 l -1.93103,-5.46207 h -10.09655 l -1.87587,5.46207 h -5.29655 l 8.38621,-23.11725 z m -7.83449,14.56552 h 8 l -3.97241,-10.26207 z"
           style="font-weight:bold;font-family:Dhurjati;-inkscape-font-specification:'Dhurjati Bold';text-align:center;text-anchor:middle;fill:#121212;fill-opacity:0.346167"
           id="path8548" />
        <path
           d="m 402.13121,473.87891 v -23.11725 h 5.29655 v 23.11725 z"
           style="font-weight:bold;font-family:Dhurjati;-inkscape-font-specification:'Dhurjati Bold';text-align:center;text-anchor:middle;fill:#121212;fill-opacity:0.346167"
           id="path8550" />
        <path
           d="m 411.56563,473.87891 v -23.11725 h 5.46207 l 8.27586,14.12414 v -14.06896 h 5.35172 v 23.06207 h -5.57241 l -8.22069,-13.90345 v 13.90345 z"
           style="font-weight:bold;font-family:Dhurjati;-inkscape-font-specification:'Dhurjati Bold';text-align:center;text-anchor:middle;fill:#121212;fill-opacity:0.346167"
           id="path8552" />
        <path
           d="m 435.78623,464.55477 v -2.42759 h 15.06207 v 2.42759 z"
           style="font-weight:bold;font-family:Dhurjati;-inkscape-font-specification:'Dhurjati Bold';text-align:center;text-anchor:middle;fill:#121212;fill-opacity:0.346167"
           id="path8554" />
        <path
           d="m 455.31726,450.76166 h 5.29655 v 18.48276 q 0,0.77242 0.6069,1.15862 0.6069,0.38621 1.65517,0.38621 h 2.42759 q 1.04827,0 1.6,-0.38621 0.6069,-0.3862 0.6069,-1.15862 v -18.48276 h 5.35172 v 18.97932 q 0,0.9931 -0.55172,1.76551 -0.55173,0.77242 -1.43449,1.32414 -0.88276,0.49655 -2.09655,0.77241 -1.15862,0.27587 -2.42759,0.27587 h -4.52413 q -1.26897,0 -2.48276,-0.27587 -1.15862,-0.27586 -2.04138,-0.77241 -0.88276,-0.55172 -1.43448,-1.32414 -0.55173,-0.77241 -0.55173,-1.76551 z"
           style="font-weight:bold;font-family:Dhurjati;-inkscape-font-specification:'Dhurjati Bold';text-align:center;text-anchor:middle;fill:#121212;fill-opacity:0.346167"
           id="path8556" />
        <path
           d="m 477.49651,473.87891 v -23.11725 h 5.29655 v 23.11725 z"
           style="font-weight:bold;font-family:Dhurjati;-inkscape-font-specification:'Dhurjati Bold';text-align:center;text-anchor:middle;fill:#121212;fill-opacity:0.346167"
           id="path8558" />
      </g>
      <path
         id="path10752"
         style="font-weight:bold;font-size:48px;font-family:Dhurjati;-inkscape-font-specification:'Dhurjati Bold';text-align:center;text-anchor:middle;white-space:pre;fill:#000000;fill-opacity:0.429492;stroke-width:1.89572"
         d="m 26.42389,132.41352 v 1.92902 h 0.888355 c 0.07059,0 0.138325,-0.007 0.202777,-0.0231 0.06446,-0.0152 0.12097,-0.0369 0.17007,-0.0645 0.05217,-0.0307 0.0923,-0.0677 0.119921,-0.11061 0.03069,-0.0429 0.04578,-0.0921 0.04578,-0.14734 v -1.23846 c 0,-0.0552 -0.0151,-0.10439 -0.04578,-0.14733 -0.02762,-0.0429 -0.06773,-0.0783 -0.119921,-0.10586 -0.0491,-0.0307 -0.105615,-0.0534 -0.17007,-0.0689 -0.06445,-0.0152 -0.132188,-0.0231 -0.202777,-0.0231 z m 1.698527,0 v 1.92872 h 1.32132 v -0.2576 h -0.879322 v -0.64011 h 0.690563 v -0.2576 h -0.690563 v -0.51582 h 0.879322 v -0.25759 z m 1.533129,0 0.676859,1.92872 h 0.446357 l 0.676857,-1.92872 h -0.441997 l -0.460375,1.29827 -0.455703,-1.29827 z m 1.998178,0 v 1.92872 h 1.321009 v -0.2576 H 32.09541 v -0.64011 h 0.690562 v -0.2576 H 32.09541 v -0.51582 h 0.879323 v -0.25759 z m 1.648068,0 v 1.92872 h 1.321007 v -0.2576 h -0.87901 v -1.67112 z m 2.17728,0 c -0.07059,0 -0.139617,0.007 -0.207138,0.023 -0.06447,0.0153 -0.120958,0.0382 -0.17007,0.0689 -0.04911,0.0276 -0.08922,0.0629 -0.119921,0.10586 -0.03068,0.0429 -0.0461,0.0921 -0.0461,0.14733 v 1.23847 c 0,0.0553 0.01542,0.1044 0.0461,0.14733 0.0307,0.0429 0.07081,0.0799 0.119921,0.11061 0.0491,0.0276 0.105615,0.0491 0.17007,0.0645 0.06752,0.0152 0.136549,0.0227 0.207138,0.0227 h 0.377519 c 0.07059,0 0.138326,-0.007 0.202777,-0.0227 0.06752,-0.0154 0.125637,-0.037 0.174744,-0.0645 0.0491,-0.0307 0.08922,-0.0677 0.119921,-0.11061 0.03068,-0.0429 0.04578,-0.0921 0.04578,-0.14733 v -1.23847 c 0,-0.0551 -0.0151,-0.10439 -0.04578,-0.14733 -0.03068,-0.0429 -0.07081,-0.0783 -0.119921,-0.10586 -0.04911,-0.0307 -0.107226,-0.0534 -0.174744,-0.0689 -0.06446,-0.0154 -0.132186,-0.023 -0.202777,-0.023 z m 1.275219,0 v 1.92872 l 0.441997,3e-4 v -0.8519 h 0.446671 c 0.07059,0 0.138014,-0.007 0.202465,-0.0231 0.06445,-0.0154 0.121275,-0.0369 0.170383,-0.0645 0.05217,-0.0307 0.09199,-0.0673 0.119616,-0.11025 0.03068,-0.0429 0.0461,-0.0921 0.0461,-0.14732 v -0.38686 c 0,-0.0553 -0.0154,-0.1044 -0.0461,-0.14734 -0.02764,-0.0429 -0.06743,-0.0783 -0.119616,-0.10586 -0.0491,-0.0307 -0.105933,-0.0534 -0.170383,-0.0689 -0.06445,-0.0152 -0.131876,-0.0231 -0.202465,-0.0231 z m 1.758645,0 v 1.92872 h 1.321319 v -0.2576 h -0.879322 v -0.64011 h 0.690563 v -0.2576 h -0.690563 v -0.51582 h 0.879322 v -0.25759 z m 1.648067,0 v 1.92872 h 0.441999 v -0.8376 l 0.621724,0.8376 h 0.464736 l -0.63512,-0.85628 c 0.06753,0 0.133343,-0.007 0.197795,-0.0227 0.06752,-0.0154 0.125947,-0.0369 0.175054,-0.0645 0.0491,-0.0307 0.08731,-0.0677 0.114933,-0.11062 0.03068,-0.0429 0.0461,-0.0921 0.0461,-0.14734 v -0.38217 c 0,-0.0553 -0.0154,-0.1044 -0.0461,-0.14734 -0.02762,-0.0429 -0.06743,-0.0784 -0.119604,-0.10586 -0.04911,-0.0307 -0.105932,-0.0534 -0.170382,-0.0689 -0.06446,-0.0154 -0.131875,-0.0231 -0.202466,-0.0231 z m 3.630493,-0.84636 v 2.77493 h 0.635926 v -1.41704 l 0.476832,0.98009 h 0.669088 l 0.463386,-0.97382 v 1.41077 h 0.642649 v -2.77493 h -0.648921 l -0.79502,1.64918 -0.788296,-1.64918 z m 3.411319,0 v 2.27838 c 0,0.0794 0.02172,0.15016 0.06587,0.21197 0.04415,0.0618 0.101884,0.11489 0.172538,0.15911 0.07066,0.0396 0.15196,0.0707 0.24469,0.0928 0.09715,0.0221 0.196907,0.0327 0.298467,0.0327 h 0.542711 c 0.101566,0 0.199016,-0.011 0.291745,-0.0327 0.09715,-0.0221 0.180761,-0.0532 0.251412,-0.0928 0.07065,-0.0442 0.128381,-0.0973 0.172538,-0.15911 0.04415,-0.0618 0.06633,-0.13248 0.06633,-0.21197 v -2.27838 h -0.642647 v 2.21879 c 0,0.0618 -0.02448,0.10793 -0.07305,0.13892 -0.04415,0.031 -0.107908,0.0467 -0.191808,0.0467 h -0.291745 c -0.08391,0 -0.149961,-0.0157 -0.19853,-0.0467 -0.04858,-0.0308 -0.07304,-0.0771 -0.07304,-0.13892 v -2.21879 z m 2.609579,0 v 2.77493 h 0.635926 v -1.66891 l 0.986826,1.66891 h 0.669089 v -2.76822 h -0.642648 v 1.68862 l -0.993549,-1.69533 z m 2.655738,0 1.020437,1.38432 v 1.39061 h 0.635477 v -1.39061 l 1.026713,-1.38432 h -0.635926 l -0.708525,0.95365 -0.702251,-0.95365 z m 3.788661,0 -1.006545,2.77493 h 0.635925 l 0.224971,-0.65565 h 1.212246 l 0.231694,0.65565 h 0.635925 l -1.013267,-2.77493 z m -29.390906,1.10395 h 0.35447 c 0.05832,0 0.104238,0.011 0.137988,0.0323 0.03376,0.0215 0.05077,0.0535 0.05077,0.0965 v 1.15562 c 0,0.0429 -0.01701,0.0751 -0.05077,0.0965 -0.03376,0.0216 -0.07967,0.0324 -0.137988,0.0324 h -0.35447 z m 8.700713,0 h 0.202776 c 0.05831,0 0.102627,0.011 0.133317,0.0323 0.03376,0.0215 0.05077,0.0535 0.05077,0.0965 v 1.15562 c 0,0.0429 -0.01701,0.0751 -0.05077,0.0965 -0.03068,0.0216 -0.07499,0.0324 -0.133317,0.0324 H 35.5666 c -0.05832,0 -0.104237,-0.011 -0.137988,-0.0324 -0.03376,-0.0215 -0.05077,-0.0535 -0.05077,-0.0965 v -1.15562 c 0,-0.0429 0.017,-0.0751 0.05077,-0.0965 0.03376,-0.0216 0.07968,-0.0323 0.137988,-0.0323 z m 1.629688,0 h 0.354471 c 0.05832,0 0.104542,0.011 0.1383,0.0323 0.03376,0.0215 0.05045,0.0535 0.05045,0.0965 v 0.304 c 0,0.0429 -0.0167,0.0751 -0.05045,0.0965 -0.03376,0.0216 -0.07999,0.0321 -0.1383,0.0321 h -0.354471 z m 3.406714,0 h 0.35447 c 0.05832,0 0.104542,0.011 0.138298,0.0323 0.03376,0.0215 0.05047,0.0535 0.05047,0.0965 v 0.29934 c 0,0.0429 -0.0167,0.0751 -0.05047,0.0965 -0.03376,0.0216 -0.07998,0.0323 -0.138298,0.0323 h -0.35447 z m 16.117626,-0.58725 0.476832,1.23197 h -0.960386 z"
         sodipodi:nodetypes="ccscccssccscccccccccccccccccccccccccccccccccccccccccccsccssssccssccssssccssccccscccssccscccccccccccccccccccccccccssccscccccccccccccccccssccssccssccscsscscccccccccccccccccccccccccccccccccsssscsccsscsscsscsscscsssssscccsssssscccccc" />
      <path
         id="path18146"
         style="fill:#fffcf7;fill-opacity:1;stroke:none;stroke-width:0.131442px;stroke-linecap:butt;stroke-linejoin:miter;stroke-opacity:1"
         d="m 8.3889914,64.651409 c -0.1002033,0.03863 -0.2028329,0.08489 -0.3063089,0.138043 v 0 c -0.8389025,0.441023 -1.7217349,0.935772 -2.5279238,1.659409 -0.8641193,0.775683 -1.4289493,1.996605 -2.2962284,2.701321 -0.4729265,0.384202 -0.7520667,0.393239 -1.3648676,0.659736 -0.6040074,0.26277 -1.21624451,0.183377 -2.22034447,0.853963 -0.98497793,0.657788 -2.53865633,2.488282 -3.47756483,3.251844 -0.9245165,0.751858 -1.499484,1.003273 -2.0917919,1.449907 -0.5859893,0.441834 -0.9504866,0.683563 -1.4576991,1.187333 -0.5038715,0.500429 -1.0146504,1.329302 -1.5194624,1.803266 -0.5011409,0.470509 -1.0381026,0.62646 -1.558801,1.04689 -0.562727,0.454381 -1.166532,0.919358 -1.664847,1.568896 -0.572835,0.746659 -0.895221,1.628784 -1.348865,2.44572 -0.501788,0.903555 -1.128476,1.807111 -1.518765,2.715966 -0.291161,0.678022 -0.566568,1.414848 -0.574809,1.95753 -0.0083,0.549371 0.239945,0.857147 0.281364,1.173364 0.0418,0.318939 -0.12751,0.642308 -0.318142,1.190161 -0.191759,0.550963 -0.412524,1.353765 -0.498645,2.060102 -0.08729,0.715397 -0.04824,1.377185 0.230573,1.771714 0.283995,0.4018 0.817965,0.528061 1.455898,0.417402 0.368626,-0.06421 0.741998,-0.221803 1.121436,-0.344419 0.327448,-0.105795 0.73209,-0.407419 0.995142,-0.337083 0.143086,0.03818 0.223133,0.11424 0.249871,0.3989 0.03843,0.407441 0.03754,1.153994 0.173575,1.894292 0.138597,0.754588 0.420585,1.508779 0.870904,1.996268 0.460895,0.498898 1.0974697,0.71795 1.7270138,0.663084 0.6407174,-0.0558 1.2402351,-0.379914 1.851865,-0.790725 0.6176639,-0.414938 1.1912231,-0.887326 1.6623748,-1.17074 0.4749385,-0.285743 0.8459924,-0.379537 1.1999848,-0.222711 0.3585803,0.158782 0.6932929,0.563949 1.2207042,0.193774 0.5316155,-0.37319 1.2291272,-1.550373 1.9840063,-2.509512 0.75776714,-0.962992 1.58115846,-1.715908 2.7996017,-2.604348 1.2401333,-0.904208 2.9104105,-1.963386 4.6851318,-2.753354 1.8346903,-0.816731 3.806599,-1.357426 5.6138756,-1.716689 1.879644,-0.373595 3.572964,-0.550246 5.524972,-0.118767 2.056739,0.454545 4.44328,1.588407 5.499164,3.372369 1.106804,1.870325 0.655862,4.349125 1.09713,5.497845 0.451831,1.176483 1.826613,1.034342 3.836076,0.551851 2.07763,-0.498743 4.834196,-1.35939 7.392188,-2.807108 2.636542,-1.492318 4.929485,-3.548826 6.34283,-6.098711 1.407899,-2.540061 1.88425,-5.462124 2.679581,-7.686563 0.786178,-2.199301 1.904329,-3.774974 2.000803,-5.202033 0.09505,-1.405984 -1.000574,-2.577138 -1.193094,-3.554108 -0.189325,-0.96201 -0.0011,-1.196502 -0.160274,-2.249697 -0.156767,-1.036428 0.458274,-3.336324 -0.909111,-3.853116 -1.240813,-0.468929 -2.823797,0.233988 -5.185915,1.079187 0.281239,-1.519159 0.09866,-2.748784 -0.901853,-3.345965 -0.89851,-0.536266 -2.140481,-0.347354 -3.975273,0.03124 -0.229787,-1.397049 -1.662839,-2.083481 -3.332746,-1.992612 -1.382353,0.0752 -2.349253,0.653323 -4.713233,1.950279 -0.493114,-1.225272 -1.825417,-1.353636 -3.247337,-1.231355 -1.263117,0.108623 -2.291798,0.348957 -4.250141,1.627579 -0.436745,-0.763458 -0.565447,-0.999345 -1.71667,-0.948632 -1.116017,0.04916 -3.627074,1.581081 -4.940758,1.904008 -1.271155,0.310546 -1.8881578,-0.02382 -2.932817,0.232235 -0.093857,0.02289 -0.1917595,0.05345 -0.2922634,0.09206 z m 2.3100036,24.80934 c -1.044325,0.18437 -2.1167549,0.443552 -3.1706529,0.787909 -2.3287426,0.761009 -4.5902169,1.938648 -6.2746141,3.269562 -1.64803834,1.302264 -2.7991104,2.795042 -3.5967183,4.606663 -0.8054809,1.829248 -1.2746153,4.039137 -1.2227072,6.148047 0.053911,2.18783 0.6655049,4.30347 1.0208114,5.47027 0.3649067,1.1992 0.4321889,1.30665 1.1916716,1.27501 0.77296879,-0.032 2.28538078,-0.20927 3.1465687,-0.47287 0.8751349,-0.26786 1.0417854,-0.60566 1.2255779,-1.20534 0.1828151,-0.59697 0.371127,-1.43081 0.5115011,-2.32766 0.1376699,-0.88793 0.2252749,-1.83373 0.3123128,-2.76878 0.7049785,0.12525 1.4232732,0.25315 2.2542575,0.26242 0.8472643,0.009 1.8123767,-0.10379 3.2362225,-0.32982 1.465265,-0.23261 3.441656,-0.58857 5.37858,-1.48997 1.994393,-0.92799 3.889164,-2.40039 5.135185,-3.972507 1.252225,-1.579947 1.7707,-3.181444 1.626385,-4.641578 -0.141074,-1.428173 -0.912949,-2.688585 -2.103228,-3.564388 -1.146573,-0.843591 -2.67236,-1.3231 -4.809207,-1.367612 -1.156416,-0.02414 -2.484519,0.07987 -3.861946,0.320644 z" />
      <g
         aria-label="WEB-BRAIN-UI"
         transform="matrix(0.39383153,0,0,0.39383153,-131.94806,-59.258084)"
         id="g18172"
         style="font-size:48px;-inkscape-font-specification:sans-serif;white-space:pre;shape-inside:url(#rect8482);fill:#fffefc;fill-opacity:1;stroke-width:15.7909">
        <path
           d="m 261.6073,473.87891 -3.91724,-13.62759 -3.91724,13.62759 h -5.29655 l -6.62069,-23.11725 h 5.29655 l 3.97242,13.84828 3.91724,-13.84828 h 5.35172 l 3.86207,13.84828 3.97241,-13.84828 h 5.35173 l -6.62069,23.11725 z"
           style="font-weight:bold;font-family:Dhurjati;-inkscape-font-specification:'Dhurjati Bold';text-align:center;text-anchor:middle;fill:#fffefc;fill-opacity:1"
           id="path18148" />
        <path
           d="m 291.29003,473.87891 h -15.83448 v -23.11725 h 15.83448 v 3.08966 H 280.7521 v 6.17931 h 8.27586 v 3.08966 h -8.27586 v 7.66896 h 10.53793 z"
           style="font-weight:bold;font-family:Dhurjati;-inkscape-font-specification:'Dhurjati Bold';text-align:center;text-anchor:middle;fill:#fffefc;fill-opacity:1"
           id="path18150" />
        <path
           d="m 311.8693,469.74098 q 0,0.9931 -0.55173,1.76551 -0.49655,0.77242 -1.43448,1.32414 -0.88276,0.49655 -2.04138,0.77241 -1.15862,0.27587 -2.42758,0.27587 h -10.2069 v -23.11725 h 9.54483 q 1.26896,0 2.42758,0.27587 1.2138,0.27586 2.09655,0.82758 0.88276,0.49655 1.43449,1.26897 0.55172,0.77241 0.55172,1.76552 v 3.86206 q 0,0.33104 -0.11034,0.71725 -0.11035,0.33103 -0.33104,0.66207 -0.16552,0.33103 -0.49655,0.66206 -0.27586,0.27587 -0.71724,0.49656 0.38621,0.22069 0.77241,0.49655 0.44138,0.27586 0.77242,0.66207 0.33103,0.33103 0.49655,0.77241 0.22069,0.38621 0.22069,0.93793 z m -7.50345,1.04827 q 0.9931,0 1.6,-0.38621 0.6069,-0.3862 0.6069,-1.15862 v -4.57931 q 0,-0.71724 -0.55173,-1.10345 -0.55172,-0.3862 -1.54483,-0.44137 h -3.97241 v 7.66896 z m 1.54483,-12.30345 v -3.08965 q 0,-0.77242 -0.6069,-1.15862 -0.55172,-0.38621 -1.6,-0.38621 h -3.2 v 6.17931 h 3.2 q 1.10345,0 1.65517,-0.44138 0.55173,-0.44138 0.55173,-1.10345 z"
           style="font-weight:bold;font-family:Dhurjati;-inkscape-font-specification:'Dhurjati Bold';text-align:center;text-anchor:middle;fill:#fffefc;fill-opacity:1"
           id="path18152" />
        <path
           d="m 316.06235,464.55477 v -2.42759 h 15.06207 v 2.42759 z"
           style="font-weight:bold;font-family:Dhurjati;-inkscape-font-specification:'Dhurjati Bold';text-align:center;text-anchor:middle;fill:#fffefc;fill-opacity:1"
           id="path18154" />
        <path
           d="m 352.03476,469.74098 q 0,0.9931 -0.55172,1.76551 -0.49655,0.77242 -1.43448,1.32414 -0.88276,0.49655 -2.04138,0.77241 -1.15862,0.27587 -2.42759,0.27587 h -10.2069 v -23.11725 h 9.54483 q 1.26897,0 2.42759,0.27587 1.21379,0.27586 2.09655,0.82758 0.88276,0.49655 1.43448,1.26897 0.55173,0.77241 0.55173,1.76552 v 3.86206 q 0,0.33104 -0.11035,0.71725 -0.11034,0.33103 -0.33103,0.66207 -0.16552,0.33103 -0.49655,0.66206 -0.27587,0.27587 -0.71725,0.49656 0.38621,0.22069 0.77242,0.49655 0.44138,0.27586 0.77241,0.66207 0.33104,0.33103 0.49655,0.77241 0.22069,0.38621 0.22069,0.93793 z m -7.50344,1.04827 q 0.9931,0 1.6,-0.38621 0.60689,-0.3862 0.60689,-1.15862 v -4.57931 q 0,-0.71724 -0.55172,-1.10345 -0.55173,-0.3862 -1.54483,-0.44137 h -3.97241 v 7.66896 z m 1.54482,-12.30345 v -3.08965 q 0,-0.77242 -0.60689,-1.15862 -0.55173,-0.38621 -1.6,-0.38621 h -3.2 v 6.17931 h 3.2 q 1.10344,0 1.65517,-0.44138 0.55172,-0.44138 0.55172,-1.10345 z"
           style="font-weight:bold;font-family:Dhurjati;-inkscape-font-specification:'Dhurjati Bold';text-align:center;text-anchor:middle;fill:#fffefc;fill-opacity:1"
           id="path18156" />
        <path
           d="m 366.2692,463.61684 7.61379,10.26207 h -5.57241 l -7.44828,-10.04138 v 10.04138 h -5.29655 v -23.11725 h 10.64828 q 1.26896,0 2.42758,0.27587 1.15862,0.27586 2.04138,0.82758 0.93793,0.49655 1.43448,1.26897 0.55173,0.77241 0.55173,1.76552 v 4.57931 q 0,0.9931 -0.55173,1.76551 -0.49655,0.77242 -1.37931,1.32414 -0.88276,0.49655 -2.09655,0.77242 -1.15862,0.27586 -2.37241,0.27586 z m 1.10345,-8.22069 q 0,-0.77242 -0.6069,-1.15862 -0.6069,-0.38621 -1.65517,-0.38621 h -4.24828 v 6.67586 h 4.24828 q 1.04827,0 1.65517,-0.3862 0.6069,-0.38621 0.6069,-1.15863 z"
           style="font-weight:bold;font-family:Dhurjati;-inkscape-font-specification:'Dhurjati Bold';text-align:center;text-anchor:middle;fill:#fffefc;fill-opacity:1"
           id="path18158" />
        <path
           d="m 390.65537,450.76166 8.44137,23.11725 h -5.29655 l -1.93103,-5.46207 h -10.09655 l -1.87587,5.46207 h -5.29655 l 8.38621,-23.11725 z m -7.83449,14.56552 h 8 l -3.97241,-10.26207 z"
           style="font-weight:bold;font-family:Dhurjati;-inkscape-font-specification:'Dhurjati Bold';text-align:center;text-anchor:middle;fill:#fffefc;fill-opacity:1"
           id="path18160" />
        <path
           d="m 402.13121,473.87891 v -23.11725 h 5.29655 v 23.11725 z"
           style="font-weight:bold;font-family:Dhurjati;-inkscape-font-specification:'Dhurjati Bold';text-align:center;text-anchor:middle;fill:#fffefc;fill-opacity:1"
           id="path18162" />
        <path
           d="m 411.56563,473.87891 v -23.11725 h 5.46207 l 8.27586,14.12414 v -14.06896 h 5.35172 v 23.06207 h -5.57241 l -8.22069,-13.90345 v 13.90345 z"
           style="font-weight:bold;font-family:Dhurjati;-inkscape-font-specification:'Dhurjati Bold';text-align:center;text-anchor:middle;fill:#fffefc;fill-opacity:1"
           id="path18164" />
        <path
           d="m 435.78623,464.55477 v -2.42759 h 15.06207 v 2.42759 z"
           style="font-weight:bold;font-family:Dhurjati;-inkscape-font-specification:'Dhurjati Bold';text-align:center;text-anchor:middle;fill:#fffefc;fill-opacity:1"
           id="path18166" />
        <path
           d="m 455.31726,450.76166 h 5.29655 v 18.48276 q 0,0.77242 0.6069,1.15862 0.6069,0.38621 1.65517,0.38621 h 2.42759 q 1.04827,0 1.6,-0.38621 0.6069,-0.3862 0.6069,-1.15862 v -18.48276 h 5.35172 v 18.97932 q 0,0.9931 -0.55172,1.76551 -0.55173,0.77242 -1.43449,1.32414 -0.88276,0.49655 -2.09655,0.77241 -1.15862,0.27587 -2.42759,0.27587 h -4.52413 q -1.26897,0 -2.48276,-0.27587 -1.15862,-0.27586 -2.04138,-0.77241 -0.88276,-0.55172 -1.43448,-1.32414 -0.55173,-0.77241 -0.55173,-1.76551 z"
           style="font-weight:bold;font-family:Dhurjati;-inkscape-font-specification:'Dhurjati Bold';text-align:center;text-anchor:middle;fill:#fffefc;fill-opacity:1"
           id="path18168" />
        <path
           d="m 477.49651,473.87891 v -23.11725 h 5.29655 v 23.11725 z"
           style="font-weight:bold;font-family:Dhurjati;-inkscape-font-specification:'Dhurjati Bold';text-align:center;text-anchor:middle;fill:#fffefc;fill-opacity:1"
           id="path18170" />
      </g>
    </g>
  </g>
</svg>
